<svg id="Layer_1" data-name="Layer 1" xmlns="http://www.w3.org/2000/svg" viewBox="0 0 2084 2084"><defs><style>.cls-1{fill:#fff;}.cls-2{fill:#01df00;}.cls-3{fill:#fcfcfc;}</style></defs><path class="cls-1" d="M1679.25,1177c-3.31,9.76-6.67,22.14-11.71,33.79-4.37,10.09-13.51,15-24,10.71-9-3.72-13.32-11.81-10-22.21,3.83-12.13,6.79-24.63,11.77-36.28,3.83-9,11.94-14.18,22.12-10.2C1676.77,1156.48,1680.89,1164.28,1679.25,1177Z"/><path class="cls-2" d="M732.4,1739.29c0-31.14-.17-62.27.05-93.4.23-31.69,13.62-56.18,43.1-68.79,12.4-5.3,11.42-10.16,6.83-20-20-42.92-53.67-72.53-92.19-98.19-110.47-73.61-190-172.42-241.8-294.71-107.53-253.82-11-547.49,214.4-698.47,355.9-238.36,843-25.15,900.63,400,33.22,245.18-55.68,446.8-259.9,592.49-37.47,26.73-72.58,55-95.82,95.52-6.7,11.7-11.16,21.14,5.37,31.3,20.45,12.57,29.55,34,29.59,58.37.12,63,1.19,126.08-.33,189.07-2.27,93.86-79.89,171.63-173.81,174.34q-80.81,2.33-161.73,0c-94.55-2.63-172.11-81.8-174.2-176.47-.68-30.35-.11-60.74-.11-91.11Zm177.17,190c6.46,4.55,13.66,5.69,21.48,5.63,42.5-.34,85,.17,127.52-.69,46.73-1,80.78-22.86,101.29-65,10.82-22.27,8.54-25.84-16.19-25.86q-109.32-.09-218.63,0c-13.63,0-28.06-.76-27.77-18.62s15-18,28.43-18c20.5.1,41,0,61.49,0,50.11,0,100.21.28,150.31-.09,36.21-.27,31.06,5.62,32.65-32.94.68-16.68-3.71-22.34-21.28-22-56.15,1.11-112.34.29-168.52.44-13.67,0-28.19-.6-28.49-18s13.93-18.72,27.79-18.66c45.55.2,91.1.12,136.65.09,55.19,0,55.19-.06,52.94-55.1,1.62-10.67,1.9-18.19-13.67-18.1-112.15.64-224.31.49-336.47.15-11.1,0-14,3.72-14,14.35.47,58.34-.18,116.7.51,175C806.25,1882.56,860.5,1941.33,909.57,1929.28ZM1329,572.81C1174.83,437.46,998.81,404,808,473.38,535.67,572.45,405.07,884.2,517.1,1137.54c42.67,104.75,110.12,190,203.73,253.37,63.06,42.67,117.26,91.54,139.46,167.55,2.61,8.92,7.46,11.6,16.41,11.57,77.45-.31,154.89-.24,232.34-.22,7.08,0,12.66-.29,15.77-9,26.16-73.61,79.9-122.94,142.58-166.12C1452.06,1267.44,1538,1032,1479.38,815c-23.14-85.68-65-161.4-130.36-222.88C1347.39,590.42,1329,572.81,1329,572.81Z"/><path class="cls-1" d="M595.83,1513.47c.43,7.36-1.56,13.25-8.69,17-8.86,4.65-15.83,1.69-22.8-4.06a761.76,761.76,0,0,1-82-78.66c-22.23-24.76-43.49-50.42-62.32-78-7.8-11.44-11.5-22.48.57-32,13.32-10.5,22.75-1,30,9.46A746.15,746.15,0,0,0,585.1,1494.4C594.17,1502,595.53,1505.69,595.83,1513.47Z"/><path class="cls-1" d="M1634.35,1276.14c-.67,12.8-9.19,22.34-14.51,33C1592,1364.91,1558.6,1417.2,1518.4,1465c-8.75,10.4-19.48,20.61-32.62,9.88-13.85-11.3-3.62-23.6,4.34-33.63,41.57-52.41,79-107.33,105.87-169,4.31-9.88,11.91-18.5,24.89-15C1629.9,1259.79,1634.29,1266.68,1634.35,1276.14Z"/><path class="cls-1" d="M1005.81,186.47c0,27.26-.14,54.52.07,81.77.11,13.55-3,25.4-19,24.95-14.39-.41-17.69-11.45-17.65-24.19q.27-84,.06-168.07c0-13.57,3-25.38,19-24.93,14.41.4,17.72,11.4,17.61,24.17C1005.63,128.93,1005.81,157.71,1005.81,186.47Z"/><path class="cls-1" d="M462.59,298.27c6.83-.58,11.26,3.45,15.65,7.85q47.26,47.38,94.71,94.59c9.11,9,14.6,19.49,4.92,29.69s-20.36,5.71-29.58-3.58q-47.92-48.35-96.3-96.25c-6.75-6.68-8.79-14.17-5.74-22.74C448.87,300.48,455.05,297.87,462.59,298.27Z"/><path class="cls-1" d="M1548.21,313.81c.63,9.4-3.91,15.14-9.47,20.62-30.07,29.67-60,59.51-90.08,89.17-9.19,9.07-19.3,20.77-32.38,7.82-12.34-12.21-3.49-23.05,6.29-32.76q46.65-46.26,92.91-92.9c7.28-7.34,15.26-9.54,24.58-5.62C1546.27,302.76,1549,308,1548.21,313.81Z"/><path class="cls-1" d="M1225.2,305.31c5.53-16.4,11.59-36.65,19.35-56.24,3.3-8.34,12.15-11.57,21.06-8.83,8.73,2.68,15.38,9.87,13,18.73A600.45,600.45,0,0,1,1258,320.92c-3.27,8.33-11.92,11.65-21.07,8C1228.2,325.52,1224.28,318.58,1225.2,305.31Z"/><path class="cls-1" d="M768,304.16c1.26,14.55-3.09,21.41-11.53,24.73-10.17,4-18.76-.76-22.33-9.83A601.58,601.58,0,0,1,715,261.5c-2.78-9.95,2.75-17.85,12.5-21.09,9.11-3,17.45.91,20.81,9.14C756.23,269,762.62,289,768,304.16Z"/><path class="cls-3" d="M1169.24,1660.55q-142,.27-284,.51c-43.94.06-44.22.25-43.32,44.5.1,5.26,1,10.51,1.52,15.76a53.19,53.19,0,0,0-.12,25.24c-.42,30.21-3.61,60.7-.58,90.55,4.31,42.39,29.12,72.64,66.87,92.17-49.07,12-103.32-46.72-103.92-97.29-.69-58.34,0-116.7-.51-175-.08-10.63,2.86-14.39,14-14.35,112.16.34,224.32.49,336.47-.15C1171.14,1642.36,1170.86,1649.88,1169.24,1660.55Z"/><path class="cls-2" d="M1006.43,1383c-.19,34.89-.58,69.77-.47,104.65,0,13.1-1.31,26.3-17.21,27-17.46.72-19.49-12.85-19.47-27,0-33.36-.42-66.72-.68-100.09.24-31.09-.11-62.21,1-93.27.48-13.38-4.52-16-16.87-16.24-35.55-.72-71.29,3.9-106.65-3.4-76.8-15.84-130.58-80-131.79-158-.52-34.14.42-68.3-.38-102.43-.49-20.85,8.77-28.46,28.92-27.75,25.77.92,51.63,1.18,77.38,0,56.79-2.53,106.2,13.19,147.21,58.41,4-19.1,1.44-36.31,5-53,16.46-77.56,81.07-131.92,159.94-132.74,34.9-.36,69.81.12,104.71-.15,13.28-.1,23.84,4.78,23.56,18.62-.95,47.68,5.53,95.69-3.75,143-14.52,74-79.41,128.16-154.81,130-26.54.66-53.13.76-79.66-.11-12.66-.41-17,3.08-16.89,16.31C1006.3,1238.8,1006.21,1310.88,1006.43,1383Zm-55.86-187.3c4.3,6.8,9.52,12.39,18.71,16.22,0-22.69.36-43.11-.06-63.52-1.25-59.54-41.75-108.66-100.06-121.91-27.72-6.3-55.84-2.72-83.77-3.21-35.81-.62-35.82-.14-34.09,36.16-.21,15.13-.27,30.27-.65,45.4C748,1208.2,835.86,1260,941.08,1237.31c-29.12-28.54-57.19-56.1-85.31-83.59-10.08-9.85-21.88-22-9.71-34.62s24.47-1.56,34.65,8.5C903.83,1150.46,927.26,1173,950.57,1195.65Zm273.24-263.57c.23-4.54,0-9.16.78-13.6,3.37-19.17-4.56-24.87-23.41-23.43-22.64,1.73-45.5.22-68.26.54-55.13.77-101.05,33.45-119.79,85.4-12.12,33.62-5.9,68.19-7.18,104.07,9.68-4.79,14.79-10,18.61-16.61,24.36-23.82,48.82-47.53,73-71.51,8.83-8.75,18.19-15.5,29.34-5.07,12.12,11.34,6,21.82-4,30.93-26.8,24.48-49.48,53.29-78.66,75.28-4.42,3.33-8.73,7.43-6.83,13.05,1.82,5.41,7.8,2.9,11.91,3,16.67.26,33.35.42,50,0,60.79-1.5,109.51-43.18,121.79-102.8C1226.61,984.9,1224,958.52,1223.81,932.08Z"/><path class="cls-3" d="M950.57,1195.65c4.39-41-4.18-77.66-35.43-106.83-19.38-18.08-42.4-28.26-68.75-29-31.68-.9-63.39-.35-95.09-.42-1.73-36.3-1.72-36.78,34.09-36.16,27.93.49,56.05-3.09,83.77,3.21,58.31,13.25,98.81,62.37,100.06,121.91.42,20.41.06,40.83.06,63.52C960.09,1208,954.87,1202.45,950.57,1195.65Z"/><path class="cls-3" d="M1223.81,932.08c-27.33-.06-54.67-.22-82-.16-70.93.14-118.38,47.88-117.68,118.32.06,6.07.28,12.14.43,18.21-3.82,6.59-8.93,11.82-18.61,16.61,1.28-35.88-4.94-70.45,7.18-104.07,18.74-52,64.66-84.63,119.79-85.4,22.76-.32,45.62,1.19,68.26-.54,18.85-1.44,26.78,4.26,23.41,23.43C1223.81,922.92,1224,927.54,1223.81,932.08Z"/></svg>