<svg id="Layer_1" data-name="Layer 1" xmlns="http://www.w3.org/2000/svg" viewBox="0 0 2084 2084"><defs><style>.cls-1{fill:#fff;}.cls-2{fill:#01df00;}</style></defs><path class="cls-1" d="M57.84,1692c52.44-20.15,106.17-37.51,157-61.1,75-34.81,126.37-95.79,170.84-164,26.1-40,52.22-82.1,86.7-114.29C564,1267,673.53,1230.6,797.82,1261.87c97.06,24.42,158.62,91.56,190.33,184.27,53.44,156.28-8.27,313.62-154.72,400.28-111.28,65.83-233,86.88-360.19,78.33-96.82-6.51-189.27-30.91-274.06-79.74-60.13-34.64-109.53-79.84-137.69-145-.7-1.61-2.41-2.78-3.65-4.16Z"/><path class="cls-1" d="M1103.57,1423.36c-51.21-141.15-138.88-234.42-283.6-281.46,6.31-3.28,13.83-5.29,18.76-10q449.58-429.38,898.78-859.14c62.77-60,138.11-70.54,209.14-30,81.17,46.35,105.53,163.87,48,237.54-19.63,25.16-42.38,48-64.48,71.1q-406.9,425.87-813.93,851.6C1111.94,1407.56,1109.42,1413.85,1103.57,1423.36Z"/><path class="cls-2" d="M329.81,491.87c33.27-9.56,65.76-18.7,98.13-28.28,11.79-3.5,23.37-7.79,34.85-12.21,21-8.08,35.29-23.24,42.72-44.19,7.57-21.35,14.14-43.07,20.79-64.74,6.41-20.85,12.37-41.84,19.23-62.84,2,6.35,4,12.68,5.84,19,8.85,29.68,17.53,59.41,26.6,89a242.66,242.66,0,0,0,9.68,25.3c7.93,18.31,21.4,31.36,40,38.27,18,6.69,36.38,12.55,54.79,18.13,25,7.57,50.12,14.51,75.19,21.73.77.23,1.51.57,3,1.14-8,2.39-15.31,4.6-22.64,6.75-30.16,8.84-60.42,17.3-90.41,26.67a185.88,185.88,0,0,0-32.18,13.85c-15.5,8.33-24.95,22.41-30.6,38.55-7.84,22.4-14.65,45.17-21.67,67.86-5.69,18.41-11,36.92-16.54,55.38-.34,1.14-.82,2.23-1.55,4.21-7.87-26.79-15.33-52.76-23.13-78.63-4.64-15.38-9.64-30.66-14.78-45.88-8.62-25.5-26-42.52-51.42-50.94-19.67-6.5-39.51-12.5-59.37-18.44C375,505.24,353.54,499.2,332.13,493A18.91,18.91,0,0,1,329.81,491.87Z"/><path class="cls-2" d="M784.7,969.53c-5.14-17.42-10.12-34.89-15.47-52.24q-5.76-18.67-12.34-37.09c-5.69-15.76-17-26.27-32.68-31.47-19.78-6.56-39.81-12.37-59.75-18.44-9.63-2.92-19.3-5.68-29-9.31,9.6-2.8,19.21-5.55,28.79-8.42,19.26-5.77,38.54-11.47,57.73-17.46,18.8-5.88,31-18.63,37-37.26,7.08-22.31,13.77-44.76,20.62-67.15,1.78-5.8,3.54-11.59,5.61-18.38,2.74,9.11,5.17,17.27,7.64,25.41,6.1,20,12.15,40.12,18.37,60.13,6.11,19.65,19.42,32.15,38.93,38,22.86,6.93,45.8,13.6,68.7,20.39,5.24,1.56,10.48,3.14,16.81,5-5.49,1.68-10,3.1-14.6,4.46q-35.22,10.5-70.43,21c-21.4,6.38-34.52,20.84-40.83,41.94q-9.93,33.3-19.94,66.56c-1.43,4.78-2.93,9.53-4.39,14.3Z"/><path class="cls-2" d="M1007.15,319.7c-4.16,1.26-7.25,2.23-10.36,3.14-14.85,4.35-29.66,8.88-44.58,13-16.51,4.53-26.5,15.06-31.09,31.4s-9.71,32.72-14.59,49.07c-.31,1.05-.65,2.09-1.28,4.07-2.21-7.23-4.17-13.64-6.14-20.05-3.64-11.88-7.39-23.73-10.88-35.66-4.46-15.23-14.61-24.33-29.66-28.61C841,331,823.49,325.79,806,320.64c-.66-.2-1.28-.52-2.61-1.06,16.21-4.7,31.73-9.13,47.21-13.71,4.67-1.39,9.23-3.13,13.82-4.78,10.94-3.92,18.58-11.33,22.19-22.34,5.13-15.63,9.83-31.4,14.72-47.1,1.25-4,2.49-8.08,4.05-13.12,4.22,14.48,8.09,27.95,12.1,41.38,1.78,5.95,3.82,11.82,5.79,17.71,4,11.94,11.93,20.08,23.91,23.95,12.63,4.07,25.37,7.84,38.08,11.69C992.15,315.35,999.11,317.34,1007.15,319.7Z"/><path class="cls-2" d="M1423.07,1460c33.27-9.55,65.76-18.69,98.13-28.28,11.79-3.49,23.37-7.78,34.85-12.2,21-8.08,35.29-23.25,42.72-44.2,7.57-21.35,14.13-43.07,20.79-64.74,6.41-20.85,12.36-41.83,19.23-62.83,2,6.34,3.94,12.67,5.84,19,8.85,29.68,17.53,59.42,26.6,89a243.35,243.35,0,0,0,9.68,25.29c7.93,18.31,21.4,31.37,40,38.27,18,6.69,36.38,12.56,54.79,18.14,25,7.56,50.12,14.51,75.19,21.73.77.22,1.51.57,3,1.14-8,2.38-15.31,4.6-22.65,6.75-30.15,8.84-60.42,17.3-90.4,26.67a185.88,185.88,0,0,0-32.18,13.85c-15.5,8.33-25,22.41-30.6,38.54-7.84,22.41-14.65,45.18-21.67,67.87-5.69,18.4-11,36.91-16.55,55.37-.34,1.14-.81,2.24-1.55,4.22-7.86-26.8-15.32-52.77-23.13-78.63-4.64-15.39-9.63-30.67-14.77-45.89-8.62-25.5-26-42.52-51.42-50.93-19.67-6.5-39.51-12.51-59.37-18.44-21.36-6.38-42.82-12.42-64.23-18.63A18.22,18.22,0,0,1,1423.07,1460Z"/><path class="cls-2" d="M1219.07,1757.93c-5.14-17.42-10.12-34.89-15.47-52.25-3.84-12.45-7.92-24.83-12.34-37.09-5.68-15.76-17-26.26-32.68-31.47-19.77-6.56-39.8-12.37-59.74-18.43-9.63-2.93-19.31-5.69-29-9.32,9.6-2.8,19.21-5.54,28.79-8.41,19.26-5.77,38.54-11.47,57.73-17.47,18.8-5.88,31.05-18.63,37-37.25,7.09-22.32,13.77-44.77,20.63-67.16,1.77-5.79,3.53-11.59,5.6-18.37,2.74,9.1,5.17,17.26,7.65,25.4,6.1,20.05,12.14,40.12,18.36,60.14,6.11,19.64,19.43,32.14,38.93,38,22.86,6.92,45.8,13.6,68.7,20.39,5.25,1.55,10.48,3.14,16.81,5-5.49,1.67-10,3.09-14.6,4.46q-35.22,10.49-70.43,21c-21.4,6.39-34.52,20.84-40.82,41.95q-9.95,33.29-19.94,66.56c-1.44,4.77-2.93,9.53-4.4,14.29Z"/><path class="cls-2" d="M1807.32,1036.37c-4.16,1.26-7.25,2.22-10.36,3.13-14.85,4.36-29.65,8.89-44.58,13-16.51,4.52-26.5,15.06-31.09,31.39s-9.7,32.72-14.59,49.07c-.31,1-.65,2.09-1.28,4.08-2.21-7.23-4.17-13.64-6.14-20-3.63-11.88-7.39-23.73-10.88-35.66-4.46-15.24-14.61-24.33-29.66-28.61-17.57-5-35.08-10.25-52.61-15.39-.66-.2-1.28-.52-2.61-1.06,16.21-4.7,31.73-9.14,47.21-13.72,4.67-1.38,9.24-3.12,13.82-4.77,10.94-3.92,18.58-11.33,22.19-22.35,5.13-15.62,9.84-31.39,14.72-47.09,1.25-4,2.49-8.08,4-13.13,4.22,14.49,8.09,28,12.1,41.39,1.78,5.95,3.82,11.82,5.79,17.71,4,11.94,11.93,20.08,23.91,24,12.64,4.07,25.38,7.84,38.09,11.68C1792.32,1032,1799.28,1034,1807.32,1036.37Z"/><path class="cls-2" d="M57.84,1630.88c52.44-20.15,106.17-37.5,157-61.1,75-34.81,126.37-95.78,170.84-164,26.1-40,52.22-82.1,86.7-114.29,91.59-85.53,201.15-121.93,325.44-90.66,97.06,24.41,158.62,91.55,190.33,184.27,53.44,156.28-8.27,313.61-154.72,400.27-111.28,65.84-233,86.89-360.19,78.34-96.82-6.51-189.27-30.91-274.06-79.75-60.13-34.64-109.53-79.84-137.69-145-.7-1.61-2.41-2.79-3.65-4.16Z"/><path class="cls-2" d="M1103.57,1362.27c-51.21-141.14-138.88-234.41-283.6-281.46,6.31-3.27,13.83-5.29,18.76-10q449.58-429.37,898.78-859.13c62.77-60,138.11-70.54,209.14-30,81.17,46.35,105.53,163.87,48,237.53-19.63,25.16-42.38,48-64.48,71.1q-406.9,425.86-813.93,851.61C1111.94,1346.47,1109.42,1352.77,1103.57,1362.27Z"/><path class="cls-1" d="M329.81,430.78c33.27-9.55,65.76-18.69,98.13-28.28,11.79-3.49,23.37-7.78,34.85-12.2,21-8.08,35.29-23.25,42.72-44.2,7.57-21.35,14.14-43.07,20.79-64.74,6.41-20.85,12.37-41.83,19.23-62.83,2,6.34,4,12.67,5.84,19,8.85,29.68,17.53,59.42,26.6,89a243.35,243.35,0,0,0,9.68,25.29c7.93,18.31,21.4,31.37,40,38.27,18,6.69,36.38,12.56,54.79,18.14,25,7.56,50.12,14.51,75.19,21.73.77.22,1.51.57,3,1.14-8,2.38-15.31,4.6-22.64,6.75-30.16,8.83-60.42,17.3-90.41,26.67a185.88,185.88,0,0,0-32.18,13.85c-15.5,8.32-24.95,22.41-30.6,38.54-7.84,22.41-14.65,45.18-21.67,67.87-5.69,18.4-11,36.91-16.54,55.37-.34,1.14-.82,2.24-1.55,4.22-7.87-26.8-15.33-52.77-23.13-78.63-4.64-15.39-9.64-30.67-14.78-45.89-8.62-25.5-26-42.52-51.42-50.93-19.67-6.5-39.51-12.51-59.37-18.44-21.36-6.38-42.82-12.42-64.23-18.63A18.91,18.91,0,0,1,329.81,430.78Z"/><path class="cls-1" d="M784.7,908.45c-5.14-17.42-10.12-34.89-15.47-52.25q-5.76-18.68-12.34-37.09c-5.69-15.76-17-26.26-32.68-31.47-19.78-6.56-39.81-12.37-59.75-18.43-9.63-2.93-19.3-5.69-29-9.32,9.6-2.8,19.21-5.54,28.79-8.41C683.52,745.71,702.8,740,722,734c18.8-5.88,31-18.63,37-37.25C766,674.44,772.72,652,779.57,629.6c1.78-5.79,3.54-11.59,5.61-18.37,2.74,9.1,5.17,17.26,7.64,25.4,6.1,20,12.15,40.12,18.37,60.14,6.11,19.64,19.42,32.14,38.93,38.05,22.86,6.92,45.8,13.6,68.7,20.39,5.24,1.55,10.48,3.14,16.81,5-5.49,1.67-10,3.09-14.6,4.46q-35.22,10.49-70.43,21c-21.4,6.39-34.52,20.84-40.83,42q-9.93,33.29-19.94,66.55c-1.43,4.78-2.93,9.54-4.39,14.3Z"/><path class="cls-1" d="M1007.15,258.62c-4.16,1.26-7.25,2.22-10.36,3.13-14.85,4.35-29.66,8.88-44.58,13-16.51,4.52-26.5,15-31.09,31.39s-9.71,32.72-14.59,49.07c-.31,1.05-.65,2.09-1.28,4.07-2.21-7.22-4.17-13.63-6.14-20-3.64-11.89-7.39-23.74-10.88-35.67-4.46-15.23-14.61-24.33-29.66-28.61-17.57-5-35.08-10.24-52.61-15.39-.66-.19-1.28-.52-2.61-1.06,16.21-4.69,31.73-9.13,47.21-13.71,4.67-1.38,9.23-3.13,13.82-4.77,10.94-3.93,18.58-11.33,22.19-22.35,5.13-15.63,9.83-31.39,14.72-47.1,1.25-4,2.49-8.08,4.05-13.12,4.22,14.48,8.09,27.95,12.1,41.38,1.78,6,3.82,11.82,5.79,17.71,4,11.94,11.93,20.09,23.91,23.95,12.63,4.08,25.37,7.84,38.08,11.69C992.15,254.27,999.11,256.26,1007.15,258.62Z"/><path class="cls-1" d="M1423.07,1398.93c33.27-9.56,65.76-18.7,98.13-28.29,11.79-3.49,23.37-7.78,34.85-12.2,21-8.08,35.29-23.24,42.72-44.2,7.57-21.35,14.13-43.07,20.79-64.73,6.41-20.85,12.36-41.84,19.23-62.84,2,6.35,3.94,12.68,5.84,19,8.85,29.68,17.53,59.41,26.6,89a241.64,241.64,0,0,0,9.68,25.29c7.93,18.32,21.4,31.37,40,38.28,18,6.68,36.38,12.55,54.79,18.13,25,7.57,50.12,14.51,75.19,21.73.77.23,1.51.57,3,1.14-8,2.38-15.31,4.6-22.65,6.75-30.15,8.84-60.42,17.3-90.4,26.67a185.88,185.88,0,0,0-32.18,13.85c-15.5,8.33-25,22.41-30.6,38.55-7.84,22.4-14.65,45.17-21.67,67.86-5.69,18.4-11,36.92-16.55,55.38-.34,1.13-.81,2.23-1.55,4.21-7.86-26.79-15.32-52.76-23.13-78.63-4.64-15.38-9.63-30.66-14.77-45.89-8.62-25.49-26-42.52-51.42-50.93-19.67-6.5-39.51-12.5-59.37-18.44-21.36-6.38-42.82-12.42-64.23-18.62A19.77,19.77,0,0,1,1423.07,1398.93Z"/><path class="cls-1" d="M1219.07,1696.84c-5.14-17.42-10.12-34.89-15.47-52.24-3.84-12.45-7.92-24.84-12.34-37.1-5.68-15.75-17-26.26-32.68-31.46-19.77-6.56-39.8-12.37-59.74-18.44-9.63-2.92-19.31-5.69-29-9.31,9.6-2.8,19.21-5.55,28.79-8.42,19.26-5.77,38.54-11.47,57.73-17.47,18.8-5.87,31.05-18.63,37-37.25,7.09-22.32,13.77-44.76,20.63-67.15,1.77-5.8,3.53-11.6,5.6-18.38,2.74,9.11,5.17,17.26,7.65,25.41,6.1,20,12.14,40.12,18.36,60.13,6.11,19.65,19.43,32.14,38.93,38,22.86,6.93,45.8,13.6,68.7,20.39,5.25,1.56,10.48,3.14,16.81,5-5.49,1.68-10,3.1-14.6,4.46q-35.22,10.5-70.43,21c-21.4,6.39-34.52,20.85-40.82,42q-9.95,33.29-19.94,66.56c-1.44,4.77-2.93,9.53-4.4,14.3Z"/><path class="cls-1" d="M1807.32,975.29c-4.16,1.25-7.25,2.22-10.36,3.13-14.85,4.35-29.65,8.88-44.58,13-16.51,4.53-26.5,15.06-31.09,31.4s-9.7,32.72-14.59,49.07c-.31,1.05-.65,2.09-1.28,4.07-2.21-7.22-4.17-13.63-6.14-20-3.63-11.88-7.39-23.73-10.88-35.66-4.46-15.23-14.61-24.33-29.66-28.61-17.57-5-35.08-10.24-52.61-15.39-.66-.19-1.28-.52-2.61-1.06,16.21-4.7,31.73-9.13,47.21-13.71,4.67-1.38,9.24-3.13,13.82-4.78,10.94-3.92,18.58-11.32,22.19-22.34,5.13-15.63,9.84-31.39,14.72-47.1,1.25-4,2.49-8.08,4-13.12,4.22,14.48,8.09,27.95,12.1,41.38,1.78,6,3.82,11.82,5.79,17.71,4,11.94,11.93,20.09,23.91,23.95,12.64,4.08,25.38,7.84,38.09,11.69C1792.32,970.94,1799.28,972.93,1807.32,975.29Z"/></svg>