<?xml version="1.0" encoding="utf-8"?>
<!-- Generator: Adobe Illustrator 25.0.0, SVG Export Plug-In . SVG Version: 6.00 Build 0)  -->
<svg version="1.1" id="Layer_1" xmlns="http://www.w3.org/2000/svg" xmlns:xlink="http://www.w3.org/1999/xlink" x="0px" y="0px"
	 viewBox="0 0 1000 1000" style="enable-background:new 0 0 1000 1000;" xml:space="preserve">
<style type="text/css">
	.st0{fill:#FFFFFF;}
	.st1{fill:#01DF00;}
</style>
<g>
	<g>
		<path class="st0" d="M633.7,895c-2.1,14.2-4.2,30-7,45.7c-0.6,3.6-2.7,8.2-5.6,9.9c-40.6,24.7-79.8,51.9-131.3,49.2
			c-62.1-3.2-108.6-46-108.8-112.6c-0.2-53.5,7-107.4,14.8-160.6c9.8-67.5,24.2-134.4,34.9-201.8c3.4-21.3,2.3-43.5,1-65.2
			c-1.9-30.8-17.8-43.7-48.8-41.8c-8.5,0.5-17,2.6-25.2,5c-8.1,2.5-15.8,6.4-23.7,9.6c-5.7-32.7,4.1-56.1,31.8-69.7
			c23.6-11.6,47.6-23.1,72.7-30.6c74.4-22.1,136.2,18.8,145,95.8c6.1,54-1.5,107.5-11.7,160.7c-14.1,73.8-28.7,147.5-41,221.6
			c-3.5,21.1-1.7,43.6,0.9,65c2.9,23.6,18.4,35.7,42.1,33.1C593.7,906.4,613.2,899.8,633.7,895z"/>
		<path class="st0" d="M545.4,219.2c-55.2-0.3-100-44.2-99.7-97.5c0.3-54.1,46.7-98.6,101.8-97.7c55.3,0.9,96.5,42.7,96.3,98
			C643.6,178.8,602.4,219.5,545.4,219.2z"/>
	</g>
	<g>
		<g>
			<path class="st1" d="M657.7,871c-2.1,14.2-4.2,30-7,45.7c-0.6,3.6-2.7,8.2-5.6,9.9c-40.6,24.7-79.8,51.9-131.3,49.2
				c-62.1-3.2-108.6-46-108.8-112.6c-0.2-53.5,7-107.4,14.8-160.6c9.8-67.5,24.2-134.4,34.9-201.8c3.4-21.3,2.3-43.5,1-65.2
				c-1.9-30.8-17.8-43.7-48.8-41.8c-8.5,0.5-17,2.6-25.2,5c-8.1,2.5-15.8,6.4-23.7,9.6c-5.7-32.7,4.1-56.1,31.8-69.7
				c23.6-11.6,47.6-23.1,72.7-30.6c74.4-22.1,136.2,18.8,145,95.8c6.1,54-1.5,107.5-11.7,160.7c-14.1,73.8-28.7,147.5-41,221.6
				c-3.5,21.1-1.7,43.6,0.9,65c2.9,23.6,18.4,35.7,42.1,33.1C617.7,882.4,637.2,875.8,657.7,871z"/>
			<path class="st1" d="M569.4,195.2c-55.2-0.3-100-44.2-99.7-97.5C470.1,43.7,516.4-0.9,571.5,0c55.3,0.9,96.5,42.7,96.3,98
				C667.6,154.8,626.4,195.5,569.4,195.2z"/>
		</g>
	</g>
</g>
</svg>
