<svg id="Layer_1" data-name="Layer 1" xmlns="http://www.w3.org/2000/svg" viewBox="0 0 500 500"><defs><style>.cls-1{fill:#01df00;}</style></defs><path class="cls-1" d="M168.68,471.64V87.47H331.2V471.64Zm147.57-14.76V102.31H183.79V456.88Z"/><path class="cls-1" d="M28.07,28.17c1.84.7,3.18,1.15,4.46,1.73q62.3,27.68,124.59,55.32c3.23,1.42,4.38,3.11,4.37,6.71q-.15,187.48-.08,375v4.92c-2-.77-3.43-1.26-4.82-1.88Q94.31,442.29,32,414.69c-3.23-1.42-4-3.19-4-6.48q.13-187.71.07-375.42ZM43,50.61v3.76q0,172.52-.09,345c0,3.06,1.2,4.19,3.69,5.3Q94.24,425.79,141.86,447c1.27.56,2.56,1.08,4.52,1.91v-5q0-171.44.08-342.87c0-3.26-1.06-4.81-4-6.1-23-10.11-45.86-20.39-68.78-30.63C63.69,59.91,53.71,55.43,43,50.61Z"/><path class="cls-1" d="M472,28.18v5q0,187.49,0,375c0,2.61.18,4.69-3.11,6.14q-63.37,27.87-126.59,56.12c-.91.4-1.85.71-3.35,1.28-.11-1.65-.28-3-.28-4.34q0-187.94,0-375.86c0-2.56.12-4.43,3.11-5.75q63.74-28.14,127.35-56.56C469.84,28.87,470.66,28.65,472,28.18ZM457.11,50.87c-1.57.59-2.64.93-3.67,1.39C421.31,66.61,389.21,81,357,95.26c-3.08,1.36-3.37,3.27-3.37,6q.06,171.22,0,342.43c0,1.52.14,3,.23,5,1.86-.76,3.18-1.26,4.47-1.83,31.51-14,63-28,94.55-41.89,3.25-1.43,4.26-3.17,4.26-6.69Q457,227.12,457.11,55.9Z"/><path class="cls-1" d="M294.1,412.71H206V331.58H294.1Z"/><path class="cls-1" d="M250.23,190.79q20.34,0,40.68,0a29,29,0,0,1,4.75.22,6.86,6.86,0,0,1,6.07,6.85,6.61,6.61,0,0,1-5,7.2,20.55,20.55,0,0,1-5.54.65q-41.12,0-82.23,0c-.86,0-1.73,0-2.59,0-5-.37-8.3-3.54-8.09-7.8s3.33-7,8.24-7.08C221.08,190.73,235.66,190.79,250.23,190.79Z"/><path class="cls-1" d="M250.22,220.39h41.11a23.77,23.77,0,0,1,4.31.19,7,7,0,0,1,6.09,6.87,6.63,6.63,0,0,1-5,7.21,19.71,19.71,0,0,1-5.54.59q-41.12,0-82.22,0c-.86,0-1.73,0-2.59,0-4.83-.28-8-3.18-8.13-7.31s3.28-7.49,8.28-7.52C221.09,220.34,235.66,220.39,250.22,220.39Z"/><path class="cls-1" d="M250.26,161.16c13.85,0,27.7-.06,41.54.06,2.23,0,5.08.14,6.51,1.46,1.75,1.62,3.39,4.68,3.1,6.86s-2.76,4.4-4.8,5.85c-1.33.94-3.61.72-5.47.73q-41.1,0-82.22,0c-.86,0-1.73,0-2.59,0-4.87-.42-8-3.3-8.08-7.39-.08-4.29,3.15-7.44,8.3-7.49,14.57-.12,29.14,0,43.71,0Z"/><path class="cls-1" d="M131.5,256.26l-47-22.37c-8.07-3.85-16.17-7.61-24.18-11.59-1.16-.58-2.62-2.13-2.62-3.24-.14-33.48-.12-67-.12-101,1.52.6,2.7,1,3.82,1.52q33.39,15.85,66.79,31.71c2.23,1.06,3.64,2.12,3.63,5-.12,32.19-.07,64.38-.08,96.57C131.76,253.79,131.63,254.63,131.5,256.26Z"/><path class="cls-1" d="M61.06,256.11a47.47,47.47,0,0,1,4.69,1.71q28.89,13.64,57.77,27.34c4.29,2,7.57,4.82,8,9.86.37,4.34-2.61,6.77-6.81,5.69a13,13,0,0,1-2.44-.84Q92.4,285.76,62.56,271.58c-3.84-1.83-6.52-4.75-7-9.17A5.32,5.32,0,0,1,61.06,256.11Z"/><path class="cls-1" d="M442.44,170.09v11c0,12.28.08,24.55-.11,36.82a5.68,5.68,0,0,1-2.37,4.27c-23.1,11.17-46.3,22.16-69.48,33.17a20.34,20.34,0,0,1-2.14.69v-8.46c0-13-.08-26,.11-39,0-1.62,1.11-4.07,2.4-4.7,23.08-11.21,46.27-22.2,69.45-33.23A14.11,14.11,0,0,1,442.44,170.09Z"/><path class="cls-1" d="M374,335.37c-3.85-.28-5.53-2.18-5.5-5.4a10.41,10.41,0,0,1,6.35-9.61c20.29-9.73,40.61-19.39,61.06-28.79,2-.9,6.15-.69,6.94.53a9.41,9.41,0,0,1,.5,7.82A14,14,0,0,1,437,306c-19.59,9.52-39.31,18.76-59,28.05A28.5,28.5,0,0,1,374,335.37Z"/><path class="cls-1" d="M374.23,301.07c-3.55.11-5.92-2.26-5.75-5.56.27-5.24,3.54-8.22,8-10.33q22.65-10.67,45.28-21.43c4.68-2.22,9.25-4.77,14.1-6.51,2.09-.75,6.08-.7,6.91.53a9.33,9.33,0,0,1,.6,7.78,13.74,13.74,0,0,1-6.27,6.08c-19.55,9.51-39.23,18.74-58.89,28A36.84,36.84,0,0,1,374.23,301.07Z"/></svg>