<?xml version="1.0" encoding="utf-8"?>
<!-- Generator: Adobe Illustrator 25.0.0, SVG Export Plug-In . SVG Version: 6.00 Build 0)  -->
<svg version="1.1" id="Layer_1" xmlns="http://www.w3.org/2000/svg" xmlns:xlink="http://www.w3.org/1999/xlink" x="0px" y="0px"
	 viewBox="0 0 2084 2084" style="enable-background:new 0 0 2084 2084;" xml:space="preserve">
<style type="text/css">
	.st0{fill:#FFFFFF;}
	.st1{fill:#01DF00;}
	.st2{fill:#FCFCFC;}
</style>
<g>
	<g>
		<path class="st0" d="M-2446.5,258c52.4-20.1,106.2-37.5,157-61.1c75-34.8,126.4-95.8,170.8-164c26.1-40.1,52.2-82.1,86.7-114.3
			c91.6-85.5,201.1-121.9,325.4-90.7c97.1,24.4,158.6,91.6,190.3,184.3c53.4,156.3-8.3,313.6-154.7,400.3
			c-111.3,65.8-233,86.9-360.2,78.3c-96.8-6.5-189.3-30.9-274.1-79.7c-60.1-34.6-109.5-79.8-137.7-145c-0.7-1.6-2.4-2.8-3.6-4.2
			C-2446.5,260.5-2446.5,259.3-2446.5,258z"/>
		<path class="st0" d="M-1400.7-10.6c-51.2-141.1-138.9-234.4-283.6-281.5c6.3-3.3,13.8-5.3,18.8-10
			c299.7-286.3,599.2-572.8,898.8-859.1c62.8-60,138.1-70.5,209.1-30c81.2,46.3,105.5,163.9,48,237.5c-19.6,25.2-42.4,48-64.5,71.1
			C-845.4-598.7-1116.8-314.9-1388-31C-1392.4-26.4-1394.9-20.1-1400.7-10.6z"/>
	</g>
	<g>
		<path class="st1" d="M-2174.5-942.1c33.3-9.6,65.8-18.7,98.1-28.3c11.8-3.5,23.4-7.8,34.9-12.2c21-8.1,35.3-23.2,42.7-44.2
			c7.6-21.4,14.1-43.1,20.8-64.7c6.4-20.8,12.4-41.8,19.2-62.8c1.9,6.3,3.9,12.7,5.8,19c8.9,29.7,17.5,59.4,26.6,89
			c2.6,8.6,6.1,17,9.7,25.3c7.9,18.3,21.4,31.4,40,38.3c18,6.7,36.4,12.6,54.8,18.1c25,7.6,50.1,14.5,75.2,21.7
			c0.8,0.2,1.5,0.6,3,1.1c-8,2.4-15.3,4.6-22.6,6.7c-30.2,8.8-60.4,17.3-90.4,26.7c-11.1,3.5-21.9,8.3-32.2,13.9
			c-15.5,8.3-25,22.4-30.6,38.5c-7.8,22.4-14.7,45.2-21.7,67.9c-5.7,18.4-11,36.9-16.5,55.4c-0.3,1.1-0.8,2.2-1.6,4.2
			c-7.9-26.8-15.3-52.8-23.1-78.6c-4.6-15.4-9.6-30.7-14.8-45.9c-8.6-25.5-26-42.5-51.4-50.9c-19.7-6.5-39.5-12.5-59.4-18.4
			c-21.4-6.4-42.8-12.4-64.2-18.6C-2172.7-941.2-2173.3-941.5-2174.5-942.1z"/>
		<path class="st1" d="M-1719.6-464.5c-5.1-17.4-10.1-34.9-15.5-52.2c-3.8-12.5-7.9-24.8-12.3-37.1c-5.7-15.8-17-26.3-32.7-31.5
			c-19.8-6.6-39.8-12.4-59.7-18.4c-9.6-2.9-19.3-5.7-29-9.3c9.6-2.8,19.2-5.5,28.8-8.4c19.3-5.8,38.5-11.5,57.7-17.5
			c18.8-5.9,31-18.6,37-37.3c7.1-22.3,13.8-44.8,20.6-67.2c1.8-5.8,3.5-11.6,5.6-18.4c2.7,9.1,5.2,17.3,7.6,25.4
			c6.1,20.1,12.1,40.1,18.4,60.1c6.1,19.6,19.4,32.1,38.9,38.1c22.9,6.9,45.8,13.6,68.7,20.4c5.2,1.6,10.5,3.1,16.8,5
			c-5.5,1.7-10,3.1-14.6,4.5c-23.5,7-47,14-70.4,21c-21.4,6.4-34.5,20.8-40.8,41.9c-6.6,22.2-13.3,44.4-19.9,66.6
			c-1.4,4.8-2.9,9.5-4.4,14.3C-1719.1-464.4-1719.4-464.5-1719.6-464.5z"/>
		<path class="st1" d="M-1497.1-1114.3c-4.2,1.3-7.2,2.2-10.4,3.1c-14.9,4.4-29.7,8.9-44.6,13c-16.5,4.5-26.5,15.1-31.1,31.4
			c-4.6,16.4-9.7,32.7-14.6,49.1c-0.3,1-0.7,2.1-1.3,4.1c-2.2-7.2-4.2-13.6-6.1-20c-3.6-11.9-7.4-23.7-10.9-35.7
			c-4.5-15.2-14.6-24.3-29.7-28.6c-17.6-5-35.1-10.2-52.6-15.4c-0.7-0.2-1.3-0.5-2.6-1.1c16.2-4.7,31.7-9.1,47.2-13.7
			c4.7-1.4,9.2-3.1,13.8-4.8c10.9-3.9,18.6-11.3,22.2-22.3c5.1-15.6,9.8-31.4,14.7-47.1c1.3-4,2.5-8.1,4.1-13.1
			c4.2,14.5,8.1,28,12.1,41.4c1.8,5.9,3.8,11.8,5.8,17.7c4,11.9,11.9,20.1,23.9,23.9c12.6,4.1,25.4,7.8,38.1,11.7
			C-1512.1-1118.6-1505.2-1116.7-1497.1-1114.3z"/>
		<path class="st1" d="M-1081.2,26c33.3-9.6,65.8-18.7,98.1-28.3c11.8-3.5,23.4-7.8,34.9-12.2c21-8.1,35.3-23.2,42.7-44.2
			c7.6-21.4,14.1-43.1,20.8-64.7c6.4-20.8,12.4-41.8,19.2-62.8c1.9,6.3,3.9,12.7,5.8,19c8.9,29.7,17.5,59.4,26.6,89
			c2.6,8.6,6.1,17,9.7,25.3c7.9,18.3,21.4,31.4,40,38.3c18,6.7,36.4,12.6,54.8,18.1c25,7.6,50.1,14.5,75.2,21.7
			c0.8,0.2,1.5,0.6,3,1.1c-8,2.4-15.3,4.6-22.6,6.7c-30.2,8.8-60.4,17.3-90.4,26.7c-11.1,3.5-21.9,8.3-32.2,13.9
			c-15.5,8.3-25,22.4-30.6,38.5c-7.8,22.4-14.7,45.2-21.7,67.9c-5.7,18.4-11,36.9-16.5,55.4c-0.3,1.1-0.8,2.2-1.6,4.2
			c-7.9-26.8-15.3-52.8-23.1-78.6c-4.6-15.4-9.6-30.7-14.8-45.9c-8.6-25.5-26-42.5-51.4-50.9c-19.7-6.5-39.5-12.5-59.4-18.4
			c-21.4-6.4-42.8-12.4-64.2-18.6C-1079.5,27-1080,26.6-1081.2,26z"/>
		<path class="st1" d="M-1285.2,323.9c-5.1-17.4-10.1-34.9-15.5-52.2c-3.8-12.5-7.9-24.8-12.3-37.1c-5.7-15.8-17-26.3-32.7-31.5
			c-19.8-6.6-39.8-12.4-59.7-18.4c-9.6-2.9-19.3-5.7-29-9.3c9.6-2.8,19.2-5.5,28.8-8.4c19.3-5.8,38.5-11.5,57.7-17.5
			c18.8-5.9,31-18.6,37-37.3c7.1-22.3,13.8-44.8,20.6-67.2c1.8-5.8,3.5-11.6,5.6-18.4c2.7,9.1,5.2,17.3,7.6,25.4
			c6.1,20.1,12.1,40.1,18.4,60.1c6.1,19.6,19.4,32.1,38.9,38.1c22.9,6.9,45.8,13.6,68.7,20.4c5.2,1.6,10.5,3.1,16.8,5
			c-5.5,1.7-10,3.1-14.6,4.5c-23.5,7-47,14-70.4,21c-21.4,6.4-34.5,20.8-40.8,41.9c-6.6,22.2-13.3,44.4-19.9,66.6
			c-1.4,4.8-2.9,9.5-4.4,14.3C-1284.7,324-1285,323.9-1285.2,323.9z"/>
		<path class="st1" d="M-697-397.6c-4.2,1.3-7.2,2.2-10.4,3.1c-14.9,4.4-29.7,8.9-44.6,13c-16.5,4.5-26.5,15.1-31.1,31.4
			c-4.6,16.4-9.7,32.7-14.6,49.1c-0.3,1-0.7,2.1-1.3,4.1c-2.2-7.2-4.2-13.6-6.1-20c-3.6-11.9-7.4-23.7-10.9-35.7
			c-4.5-15.2-14.6-24.3-29.7-28.6c-17.6-5-35.1-10.2-52.6-15.4c-0.7-0.2-1.3-0.5-2.6-1.1c16.2-4.7,31.7-9.1,47.2-13.7
			c4.7-1.4,9.2-3.1,13.8-4.8c10.9-3.9,18.6-11.3,22.2-22.3c5.1-15.6,9.8-31.4,14.7-47.1c1.3-4,2.5-8.1,4.1-13.1
			c4.2,14.5,8.1,28,12.1,41.4c1.8,5.9,3.8,11.8,5.8,17.7c4,11.9,11.9,20.1,23.9,23.9c12.6,4.1,25.4,7.8,38.1,11.7
			C-712-402-705-400-697-397.6z"/>
	</g>
	<g>
		<path class="st1" d="M-2446.5,196.9c52.4-20.1,106.2-37.5,157-61.1c75-34.8,126.4-95.8,170.8-164c26.1-40.1,52.2-82.1,86.7-114.3
			c91.6-85.5,201.1-121.9,325.4-90.7c97.1,24.4,158.6,91.6,190.3,184.3c53.4,156.3-8.3,313.6-154.7,400.3
			c-111.3,65.8-233,86.9-360.2,78.3c-96.8-6.5-189.3-30.9-274.1-79.7c-60.1-34.6-109.5-79.8-137.7-145c-0.7-1.6-2.4-2.8-3.6-4.2
			C-2446.5,199.4-2446.5,198.2-2446.5,196.9z"/>
		<path class="st1" d="M-1400.7-71.7c-51.2-141.1-138.9-234.4-283.6-281.5c6.3-3.3,13.8-5.3,18.8-10
			c299.7-286.3,599.2-572.8,898.8-859.1c62.8-60,138.1-70.5,209.1-30c81.2,46.3,105.5,163.9,48,237.5c-19.6,25.2-42.4,48-64.5,71.1
			C-845.4-659.8-1116.8-376-1388-92.1C-1392.4-87.5-1394.9-81.2-1400.7-71.7z"/>
	</g>
	<g>
		<path class="st0" d="M-2174.5-1003.2c33.3-9.6,65.8-18.7,98.1-28.3c11.8-3.5,23.4-7.8,34.9-12.2c21-8.1,35.3-23.2,42.7-44.2
			c7.6-21.4,14.1-43.1,20.8-64.7c6.4-20.9,12.4-41.8,19.2-62.8c1.9,6.3,3.9,12.7,5.8,19c8.9,29.7,17.5,59.4,26.6,89
			c2.6,8.6,6.1,17,9.7,25.3c7.9,18.3,21.4,31.4,40,38.3c18,6.7,36.4,12.6,54.8,18.1c25,7.6,50.1,14.5,75.2,21.7
			c0.8,0.2,1.5,0.6,3,1.1c-8,2.4-15.3,4.6-22.6,6.7c-30.2,8.8-60.4,17.3-90.4,26.7c-11.1,3.5-21.9,8.3-32.2,13.9
			c-15.5,8.3-25,22.4-30.6,38.5c-7.8,22.4-14.7,45.2-21.7,67.9c-5.7,18.4-11,36.9-16.5,55.4c-0.3,1.1-0.8,2.2-1.6,4.2
			c-7.9-26.8-15.3-52.8-23.1-78.6c-4.6-15.4-9.6-30.7-14.8-45.9c-8.6-25.5-26-42.5-51.4-50.9c-19.7-6.5-39.5-12.5-59.4-18.4
			c-21.4-6.4-42.8-12.4-64.2-18.6C-2172.7-1002.2-2173.3-1002.6-2174.5-1003.2z"/>
		<path class="st0" d="M-1719.6-525.6c-5.1-17.4-10.1-34.9-15.5-52.2c-3.8-12.5-7.9-24.8-12.3-37.1c-5.7-15.8-17-26.3-32.7-31.5
			c-19.8-6.6-39.8-12.4-59.7-18.4c-9.6-2.9-19.3-5.7-29-9.3c9.6-2.8,19.2-5.5,28.8-8.4c19.3-5.8,38.5-11.5,57.7-17.5
			c18.8-5.9,31-18.6,37-37.3c7.1-22.3,13.8-44.8,20.6-67.2c1.8-5.8,3.5-11.6,5.6-18.4c2.7,9.1,5.2,17.3,7.6,25.4
			c6.1,20.1,12.1,40.1,18.4,60.1c6.1,19.6,19.4,32.1,38.9,38.1c22.9,6.9,45.8,13.6,68.7,20.4c5.2,1.6,10.5,3.1,16.8,5
			c-5.5,1.7-10,3.1-14.6,4.5c-23.5,7-47,14-70.4,21c-21.4,6.4-34.5,20.8-40.8,41.9c-6.6,22.2-13.3,44.4-19.9,66.6
			c-1.4,4.8-2.9,9.5-4.4,14.3C-1719.1-525.5-1719.4-525.5-1719.6-525.6z"/>
		<path class="st0" d="M-1497.1-1175.4c-4.2,1.3-7.2,2.2-10.4,3.1c-14.9,4.4-29.7,8.9-44.6,13c-16.5,4.5-26.5,15.1-31.1,31.4
			c-4.6,16.4-9.7,32.7-14.6,49.1c-0.3,1-0.7,2.1-1.3,4.1c-2.2-7.2-4.2-13.6-6.1-20c-3.6-11.9-7.4-23.7-10.9-35.7
			c-4.5-15.2-14.6-24.3-29.7-28.6c-17.6-5-35.1-10.2-52.6-15.4c-0.7-0.2-1.3-0.5-2.6-1.1c16.2-4.7,31.7-9.1,47.2-13.7
			c4.7-1.4,9.2-3.1,13.8-4.8c10.9-3.9,18.6-11.3,22.2-22.3c5.1-15.6,9.8-31.4,14.7-47.1c1.3-4,2.5-8.1,4.1-13.1
			c4.2,14.5,8.1,28,12.1,41.4c1.8,5.9,3.8,11.8,5.8,17.7c4,11.9,11.9,20.1,23.9,23.9c12.6,4.1,25.4,7.8,38.1,11.7
			C-1512.1-1179.7-1505.2-1177.7-1497.1-1175.4z"/>
		<path class="st0" d="M-1081.2-35.1c33.3-9.6,65.8-18.7,98.1-28.3c11.8-3.5,23.4-7.8,34.9-12.2c21-8.1,35.3-23.2,42.7-44.2
			c7.6-21.4,14.1-43.1,20.8-64.7c6.4-20.9,12.4-41.8,19.2-62.8c1.9,6.3,3.9,12.7,5.8,19c8.9,29.7,17.5,59.4,26.6,89
			c2.6,8.6,6.1,17,9.7,25.3c7.9,18.3,21.4,31.4,40,38.3c18,6.7,36.4,12.6,54.8,18.1c25,7.6,50.1,14.5,75.2,21.7
			c0.8,0.2,1.5,0.6,3,1.1c-8,2.4-15.3,4.6-22.6,6.7c-30.2,8.8-60.4,17.3-90.4,26.7c-11.1,3.5-21.9,8.3-32.2,13.9
			c-15.5,8.3-25,22.4-30.6,38.5c-7.8,22.4-14.7,45.2-21.7,67.9c-5.7,18.4-11,36.9-16.5,55.4c-0.3,1.1-0.8,2.2-1.6,4.2
			c-7.9-26.8-15.3-52.8-23.1-78.6c-4.6-15.4-9.6-30.7-14.8-45.9c-8.6-25.5-26-42.5-51.4-50.9c-19.7-6.5-39.5-12.5-59.4-18.4
			c-21.4-6.4-42.8-12.4-64.2-18.6C-1079.5-34.1-1080-34.5-1081.2-35.1z"/>
		<path class="st0" d="M-1285.2,262.8c-5.1-17.4-10.1-34.9-15.5-52.2c-3.8-12.5-7.9-24.8-12.3-37.1c-5.7-15.8-17-26.3-32.7-31.5
			c-19.8-6.6-39.8-12.4-59.7-18.4c-9.6-2.9-19.3-5.7-29-9.3c9.6-2.8,19.2-5.5,28.8-8.4c19.3-5.8,38.5-11.5,57.7-17.5
			c18.8-5.9,31-18.6,37-37.3c7.1-22.3,13.8-44.8,20.6-67.2c1.8-5.8,3.5-11.6,5.6-18.4c2.7,9.1,5.2,17.3,7.6,25.4
			c6.1,20.1,12.1,40.1,18.4,60.1c6.1,19.6,19.4,32.1,38.9,38.1c22.9,6.9,45.8,13.6,68.7,20.4c5.2,1.6,10.5,3.1,16.8,5
			c-5.5,1.7-10,3.1-14.6,4.5c-23.5,7-47,14-70.4,21c-21.4,6.4-34.5,20.8-40.8,41.9c-6.6,22.2-13.3,44.4-19.9,66.6
			c-1.4,4.8-2.9,9.5-4.4,14.3C-1284.7,262.9-1285,262.9-1285.2,262.8z"/>
		<path class="st0" d="M-697-458.7c-4.2,1.3-7.2,2.2-10.4,3.1c-14.9,4.4-29.7,8.9-44.6,13c-16.5,4.5-26.5,15.1-31.1,31.4
			c-4.6,16.4-9.7,32.7-14.6,49.1c-0.3,1-0.7,2.1-1.3,4.1c-2.2-7.2-4.2-13.6-6.1-20c-3.6-11.9-7.4-23.7-10.9-35.7
			c-4.5-15.2-14.6-24.3-29.7-28.6c-17.6-5-35.1-10.2-52.6-15.4c-0.7-0.2-1.3-0.5-2.6-1.1c16.2-4.7,31.7-9.1,47.2-13.7
			c4.7-1.4,9.2-3.1,13.8-4.8c10.9-3.9,18.6-11.3,22.2-22.3c5.1-15.6,9.8-31.4,14.7-47.1c1.3-4,2.5-8.1,4.1-13.1
			c4.2,14.5,8.1,28,12.1,41.4c1.8,5.9,3.8,11.8,5.8,17.7c4,11.9,11.9,20.1,23.9,23.9c12.6,4.1,25.4,7.8,38.1,11.7
			C-712-463.1-705-461.1-697-458.7z"/>
	</g>
</g>
<image style="overflow:visible;" width="2084" height="2084" xlink:href="../../Logo and other assets/logo-01.png"  transform="matrix(0.48 0 0 0.48 -1437.8905 323.208)">
</image>
<g>
	<path class="st0" d="M3597.1,1060.8c-3.3,9.8-6.7,22.1-11.7,33.8c-4.4,10.1-13.5,15-24,10.7c-9-3.7-13.3-11.8-10-22.2
		c3.8-12.1,6.8-24.6,11.8-36.3c3.8-9,11.9-14.2,22.1-10.2C3594.6,1040.3,3598.7,1048.1,3597.1,1060.8z"/>
	<g>
		<path class="st1" d="M2650.2,1623.1c0-31.1-0.2-62.3,0-93.4c0.2-31.7,13.6-56.2,43.1-68.8c12.4-5.3,11.4-10.2,6.8-20
			c-20-42.9-53.7-72.5-92.2-98.2c-110.5-73.6-190-172.4-241.8-294.7c-107.5-253.8-11-547.5,214.4-698.5
			c355.9-238.4,843-25.2,900.6,400c33.2,245.2-55.7,446.8-259.9,592.5c-37.5,26.7-72.6,55-95.8,95.5c-6.7,11.7-11.2,21.1,5.4,31.3
			c20.5,12.6,29.6,34,29.6,58.4c0.1,63,1.2,126.1-0.3,189.1c-2.3,93.9-79.9,171.6-173.8,174.3c-53.9,1.6-107.9,1.5-161.7,0
			c-94.6-2.6-172.1-81.8-174.2-176.5C2649.7,1683.9,2650.3,1653.5,2650.2,1623.1C2650.3,1623.1,2650.2,1623.1,2650.2,1623.1z
			 M2827.4,1813.1c6.5,4.6,13.7,5.7,21.5,5.6c42.5-0.3,85,0.2,127.5-0.7c46.7-0.9,80.8-22.9,101.3-65.1
			c10.8-22.3,8.5-25.8-16.2-25.9c-72.9-0.1-145.8,0-218.6,0c-13.6,0-28.1-0.8-27.8-18.6c0.3-17.9,15-18,28.4-17.9
			c20.5,0.1,41,0,61.5,0c50.1,0,100.2,0.3,150.3-0.1c36.2-0.3,31.1,5.6,32.6-32.9c0.7-16.7-3.7-22.3-21.3-22
			c-56.2,1.1-112.3,0.3-168.5,0.4c-13.7,0-28.2-0.6-28.5-18c-0.3-17.4,13.9-18.7,27.8-18.7c45.5,0.2,91.1,0.1,136.6,0.1
			c55.2,0,55.2-0.1,52.9-55.1c1.6-10.7,1.9-18.2-13.7-18.1c-112.2,0.6-224.3,0.5-336.5,0.1c-11.1,0-14,3.7-14,14.3
			c0.5,58.3-0.2,116.7,0.5,175C2724.1,1766.4,2778.3,1825.1,2827.4,1813.1z M3246.8,456.6c-154.1-135.3-330.2-168.8-521-99.4
			c-272.4,99.1-402.9,410.8-290.9,664.2c42.7,104.7,110.1,190,203.7,253.4c63.1,42.7,117.3,91.5,139.5,167.6
			c2.6,8.9,7.5,11.6,16.4,11.6c77.4-0.3,154.9-0.2,232.3-0.2c7.1,0,12.7-0.3,15.8-9c26.2-73.6,79.9-122.9,142.6-166.1
			c184.7-127.2,270.6-362.7,212-579.7c-23.1-85.7-65-161.4-130.4-222.9C3265.2,474.2,3246.8,456.6,3246.8,456.6z"/>
		<path class="st0" d="M2513.6,1397.3c0.4,7.4-1.6,13.3-8.7,17c-8.9,4.7-15.8,1.7-22.8-4.1c-29.3-24.2-56.7-50.5-82-78.7
			c-22.2-24.8-43.5-50.4-62.3-78c-7.8-11.4-11.5-22.5,0.6-32c13.3-10.5,22.8-1,30,9.5c38.2,55.1,83,104.1,134.5,147.2
			C2512,1385.8,2513.3,1389.5,2513.6,1397.3z"/>
		<path class="st0" d="M3552.2,1160c-0.7,12.8-9.2,22.3-14.5,33c-27.8,55.8-61.2,108.1-101.4,155.8c-8.8,10.4-19.5,20.6-32.6,9.9
			c-13.8-11.3-3.6-23.6,4.3-33.6c41.6-52.4,79-107.3,105.9-169c4.3-9.9,11.9-18.5,24.9-15C3547.7,1143.6,3552.1,1150.5,3552.2,1160z
			"/>
		<path class="st0" d="M2923.6,70.3c0,27.3-0.1,54.5,0.1,81.8c0.1,13.5-3,25.4-19.1,24.9c-14.4-0.4-17.7-11.4-17.6-24.2
			c0.2-56,0.2-112,0.1-168.1c0-13.6,3-25.4,19-24.9c14.4,0.4,17.7,11.4,17.6,24.2C2923.4,12.7,2923.6,41.5,2923.6,70.3z"/>
		<path class="st0" d="M2380.4,182.1c6.8-0.6,11.3,3.4,15.6,7.9c31.5,31.6,63,63.2,94.7,94.6c9.1,9,14.6,19.5,4.9,29.7
			c-9.7,10.2-20.4,5.7-29.6-3.6c-32-32.2-64-64.3-96.3-96.3c-6.7-6.7-8.8-14.2-5.7-22.7C2366.7,184.3,2372.9,181.7,2380.4,182.1z"/>
		<path class="st0" d="M3466,197.6c0.6,9.4-3.9,15.1-9.5,20.6c-30.1,29.7-60,59.5-90.1,89.2c-9.2,9.1-19.3,20.8-32.4,7.8
			c-12.3-12.2-3.5-23.1,6.3-32.8c31.1-30.8,62.1-61.8,92.9-92.9c7.3-7.3,15.3-9.5,24.6-5.6C3464.1,186.6,3466.8,191.8,3466,197.6z"
			/>
		<path class="st0" d="M3143,189.1c5.5-16.4,11.6-36.7,19.3-56.2c3.3-8.3,12.2-11.6,21.1-8.8c8.7,2.7,15.4,9.9,13,18.7
			c-5.7,21-12.7,41.7-20.6,61.9c-3.3,8.3-11.9,11.7-21.1,8C3146,209.3,3142.1,202.4,3143,189.1z"/>
		<path class="st0" d="M2685.8,188c1.3,14.6-3.1,21.4-11.5,24.7c-10.2,4-18.8-0.8-22.3-9.8c-7.4-18.8-13.7-38.1-19.1-57.6
			c-2.8-9.9,2.7-17.8,12.5-21.1c9.1-3,17.5,0.9,20.8,9.1C2674,152.8,2680.4,172.8,2685.8,188z"/>
		<path class="st2" d="M3087,1544.4c-94.7,0.2-189.4,0.4-284,0.5c-43.9,0.1-44.2,0.2-43.3,44.5c0.1,5.3,1,10.5,1.5,15.8
			c-2.1,8.4-2.1,16.8-0.1,25.2c-0.4,30.2-3.6,60.7-0.6,90.6c4.3,42.4,29.1,72.6,66.9,92.2c-49.1,12-103.3-46.7-103.9-97.3
			c-0.7-58.3,0-116.7-0.5-175c-0.1-10.6,2.9-14.4,14-14.3c112.2,0.3,224.3,0.5,336.5-0.1C3088.9,1526.2,3088.7,1533.7,3087,1544.4z"
			/>
		<path class="st1" d="M2924.2,1266.8c-0.2,34.9-0.6,69.8-0.5,104.6c0,13.1-1.3,26.3-17.2,27c-17.5,0.7-19.5-12.8-19.5-27
			c0-33.4-0.4-66.7-0.7-100.1c0.2-31.1-0.1-62.2,1-93.3c0.5-13.4-4.5-16-16.9-16.2c-35.6-0.7-71.3,3.9-106.6-3.4
			c-76.8-15.8-130.6-80-131.8-158c-0.5-34.1,0.4-68.3-0.4-102.4c-0.5-20.9,8.8-28.5,28.9-27.8c25.8,0.9,51.6,1.2,77.4,0
			c56.8-2.5,106.2,13.2,147.2,58.4c4-19.1,1.4-36.3,5-53c16.5-77.6,81.1-131.9,159.9-132.7c34.9-0.4,69.8,0.1,104.7-0.1
			c13.3-0.1,23.8,4.8,23.6,18.6c-1,47.7,5.5,95.7-3.7,143c-14.5,74-79.4,128.2-154.8,130c-26.5,0.7-53.1,0.8-79.7-0.1
			c-12.7-0.4-17,3.1-16.9,16.3C2924.1,1122.6,2924,1194.7,2924.2,1266.8z M2868.4,1079.5c4.3,6.8,9.5,12.4,18.7,16.2
			c0-22.7,0.4-43.1-0.1-63.5c-1.2-59.5-41.7-108.7-100.1-121.9c-27.7-6.3-55.8-2.7-83.8-3.2c-35.8-0.6-35.8-0.1-34.1,36.2
			c-0.2,15.1-0.3,30.3-0.7,45.4c-2.6,103.4,85.2,155.2,190.4,132.5c-29.1-28.5-57.2-56.1-85.3-83.6c-10.1-9.9-21.9-21.9-9.7-34.6
			c12.2-12.7,24.5-1.6,34.7,8.5C2821.6,1034.3,2845.1,1056.8,2868.4,1079.5z M3141.6,815.9c0.2-4.5,0-9.2,0.8-13.6
			c3.4-19.2-4.6-24.9-23.4-23.4c-22.6,1.7-45.5,0.2-68.3,0.5c-55.1,0.8-101,33.5-119.8,85.4c-12.1,33.6-5.9,68.2-7.2,104.1
			c9.7-4.8,14.8-10,18.6-16.6c24.4-23.8,48.8-47.5,73-71.5c8.8-8.8,18.2-15.5,29.3-5.1c12.1,11.3,6,21.8-4,30.9
			c-26.8,24.5-49.5,53.3-78.7,75.3c-4.4,3.3-8.7,7.4-6.8,13.1c1.8,5.4,7.8,2.9,11.9,3c16.7,0.3,33.4,0.4,50,0
			c60.8-1.5,109.5-43.2,121.8-102.8C3144.4,868.7,3141.8,842.3,3141.6,815.9z"/>
		<path class="st2" d="M2868.4,1079.5c4.4-41-4.2-77.7-35.4-106.8c-19.4-18.1-42.4-28.3-68.8-29c-31.7-0.9-63.4-0.4-95.1-0.4
			c-1.7-36.3-1.7-36.8,34.1-36.2c27.9,0.5,56-3.1,83.8,3.2c58.3,13.2,98.8,62.4,100.1,121.9c0.4,20.4,0.1,40.8,0.1,63.5
			C2877.9,1091.9,2872.7,1086.3,2868.4,1079.5z"/>
		<path class="st2" d="M3141.6,815.9c-27.3-0.1-54.7-0.2-82-0.2c-70.9,0.1-118.4,47.9-117.7,118.3c0.1,6.1,0.3,12.1,0.4,18.2
			c-3.8,6.6-8.9,11.8-18.6,16.6c1.3-35.9-4.9-70.5,7.2-104.1c18.7-52,64.7-84.6,119.8-85.4c22.8-0.3,45.6,1.2,68.3-0.5
			c18.9-1.4,26.8,4.3,23.4,23.4C3141.6,806.7,3141.8,811.4,3141.6,815.9z"/>
	</g>
</g>
<g>
	<g>
		<path class="st0" d="M1523.7,1221.2c-12.5,29.8-25.1,59.5-37.2,89.4c-3,7.4-6.9,12.5-16.8,12.1c-7.9-0.7-12.5-5.9-9.1-14.4
			c13.1-32.7,26.7-65.2,40.5-97.7c3.3-7.8,10.4-10.1,18-7.2C1528.3,1206.8,1526.8,1213.9,1523.7,1221.2z"/>
		<path class="st0" d="M1634.8,954.3c-1,2.6-2.5,6.6-4.1,10.4c-24.8,59.6-49.7,119.1-74.5,178.6c-0.7,1.7-1.3,3.3-2,5
			c-3.7,8.9-9.9,14.3-19.6,10.3c-9.9-4.1-7.3-12.2-4.1-19.8c18.9-45.2,37.8-90.5,56.7-135.7c7.3-17.6,14.5-35.3,22.1-52.8
			c3.1-7.2,8.7-11.6,17.2-9.3C1632.3,942.6,1635.7,946.5,1634.8,954.3z"/>
		<path class="st0" d="M1930.7,268.7C1837,317,1743,364.7,1649,412.4c-116.3,59.2-232.6,118.3-348.9,177.4
			c-156.5,79.6-313,159.1-469.5,238.6c-73.2,37.2-146.4,74.4-219.6,111.6c-19.4,9.9-20.3,24.3-2.1,36.6
			c12.8,8.7,26.4,16.5,39.6,24.6c5.4-0.2,9.8,1.1,11.1,7.1c89.5,58.1,178.9,116.4,268.7,174.1c10.8,6.9,15,14.8,16.6,27.2
			c12.3,94,26.1,187.8,37.6,281.9c2.6,20.9,17.9,26.6,35.7,17.4c70.7-36.7,143-70.4,213.1-108.3c32.6-17.7,61.9-28.6,94.3-3
			c0.4,0.3,1.2,0.1,1.8,0.2c2.9,2.6,10.6-4.1,9.9,5.2c2.5,1.2,4.9,2.4,7.4,3.5c7.9-7.1,8.8,0.9,11.4,5.3
			c41.3,20.5,82.5,41.1,123.9,61.4c19.7,9.7,26.9,6.5,35.4-14.4c1.8-4.4,3.7-8.8,5.4-13.2c133.6-347,267.1-694.1,400.9-1041
			c14.7-38.2,26.7-77.4,44.1-114.4v-18C1955.1,261.1,1944.1,261.9,1930.7,268.7z M931.8,1142.5c-9.3-8.2-20.5-14.4-30.8-21.4
			c-4.6-0.8-8.1-3-10.9-6.7c-57.5-36.8-115.1-73.5-172.6-110.3c-21.6-13.9-43.1-27.8-67.2-43.4c42.3-21.5,82.5-42,122.6-62.4
			c356.8-181.4,713.6-362.8,1070.4-544.1c2.1-1,4.4-1.8,6.6-2.7c3.2-2.9,7.7-7.7,10.9-3.5c2.9,3.9-3.4,6-6.7,7.9
			c-25.2,22-50.3,44-75.4,66.1c-2.9,4.3-6.4,7.7-11.2,9.8c-61.5,54.5-122.9,109.2-184.7,163.5c-206.6,181.7-413.4,363.1-619.7,545
			C952,1150.1,943.8,1153.1,931.8,1142.5z M1741.6,503.6c1.4,1.3,2.8,2.7,4.2,4c-25.3,29.9-50.5,59.9-77.6,92
			c-4.9-19.8-1.9-32.2,12.9-43.4C1702.4,540.2,1721.6,521.3,1741.6,503.6z M1628.1,647c-18.4,19.1-34.7,40.2-52.6,61.2
			c-1.7-3.3-2.4-4.1-2.7-5.1c-10.7-33.9-0.4-59.1,29.9-77.9c13-8.1,23.5-20.1,35.7-30.8C1651.2,615.8,1643.2,631.4,1628.1,647z
			 M1532.2,760c-13.9,11.7-24.3,27.7-38.1,43.9c-13.9-76.7-13.9-76.7,50.4-125.2C1546.7,707.8,1561.1,735.7,1532.2,760z
			 M1460.3,845.2c-6.1,4.8-11.2,10.4-14.7,17.4c-1.2,1.4-2.3,2.7-3.4,4.1c-4.7,5.2-9.4,10.3-14.1,15.5c-6.5,7.4-13.1,14.7-21.9,24.6
			c-4.7-33.3-9.1-63.6-13-94.1c-0.3-2.1,2.9-5,5-6.9c20.1-17.8,40.3-35.5,62.9-55.3c3.4,27.3,6.6,51.9,9.5,76.6
			C1471.4,835.1,1462.5,838.4,1460.3,845.2z M1377.8,940.7c-18.7,21.8-37.2,43.6-58.8,68.9c-4.4-42.6-8.3-80.7-12.3-118.8
			c-0.5-5.1,3-7.6,6.1-10.3c18.4-16.2,36.8-32.3,57.7-50.7c4.2,35,8.2,67.4,12.1,99.7C1383.2,934.2,1380.7,937.4,1377.8,940.7z
			 M1285.4,1049.5c-11.8,12.3-22.3,25.9-35.9,41.9c-7.1-45.6-13.4-87.2-19.9-128.8c-0.9-5.9,0.7-10.1,5.4-14
			c15.5-13.1,30.6-26.6,48.1-41.9c4.1,40,7.5,76.9,11.8,113.7C1296.1,1032.1,1293.6,1041,1285.4,1049.5z M1226.7,1105.8
			c-0.2,4.8-0.3,9.6-0.5,14.4c-17.7,20.1-35.4,40.2-55.6,63.1c-2-16.4-3.7-30-5.1-43.7c-3.7-36.3-6.8-72.7-10.7-109
			c-2-18,14-21.4,23.3-30.3l0,0c7.8-7.9,15.7-15.8,23.5-23.7c8.2,1,5.7,7.8,6.5,12.6C1214.4,1028.1,1220.5,1067,1226.7,1105.8z
			 M1142.3,1217.5c-22,22.4-38.6,48.5-54.3,77.2c-4.4-64.7-9-129.4-13.3-194c-0.3-4.5-1.9-9.5,2.6-13.4
			c17.1-14.8,34.1-29.7,53.3-46.5c5.5,56.7,10.7,110.2,16,163.7C1147.2,1209.5,1146,1213.8,1142.3,1217.5z M1014,1452.1
			c-9.1-66.3-17.5-127.8-25.9-189.4c-3.3-23.8-6.2-47.6-10.1-71.3c-1.7-10.4,0.1-17.8,8.7-24.9c20.7-17.1,40.6-35.2,63.1-54.8
			c2.2,30.6,4.2,58.5,6.3,86.4c3.4,44.9,6.8,89.8,10.1,134.7c0.4,5.3,1.9,10.5-0.8,15.8C1048.8,1381.8,1032.4,1414.8,1014,1452.1z
			 M1055.6,1449.3c26.1-52.7,50.2-100.2,73.1-148.1c5.9-12.3,10.2-13.7,21.7-6c29.8,20,60.6,38.6,94.2,59.6
			C1181.2,1386.5,1120.3,1416.9,1055.6,1449.3z M1841.6,507.7c-115.7,301.9-231.5,603.8-347.2,905.8c-8.6,22.4-8.5,22.4-29.4,12.5
			c-101.9-48.2-203.2-97.4-296.6-161.3c-10.4-7.1-10.4-10.6-2.8-19.5c233-273.4,465.7-546.9,698.5-820.5c2.2-2.6,4.5-5.1,6.8-7.6
			c1.4,0.8,2.8,1.5,4.2,2.2C1863.9,448.8,1852.9,478.3,1841.6,507.7z"/>
		<path class="st1" d="M533.6,1715.5c-5.9,7.9-2.6,17.5-1.3,27.5c1,7.1-4.1,13.8-12,16c-8.3,2.3-16.6,0.9-20.2-7.1
			c-4.6-10.1-10.6-8.6-18.8-6c-9.7,3.1-19.6,5.7-29.7,7.1c-10.1,1.4-17.8-2.9-19.9-13.7c-2-10.3,2.1-17.5,12.4-20.7
			c1.7-0.5,3.4-1.2,5.1-1.7c10.3-3,23-3.2,30.5-9.5c8.9-7.5-0.1-19.9-0.3-30.2c-0.3-12.2,4.6-20.7,16.4-21.9
			c11.9-1.2,18.7,6.4,19.7,18.6c0.9,10.2,1.1,20.2,12.6,25.6C533.3,1702,534.3,1708.2,533.6,1715.5z"/>
		<path class="st1" d="M280.1,1680c-0.2,8.3-3.4,13.9-9.6,17.2c-6.3,3.4-13.1,3.4-18.7-1.1c-20.8-16.6-38.4-36.4-53.2-58.4
			c-5.1-7.6-3.7-16.3,3.9-22.6c7.5-6.2,16.7-6.8,22.8,0.3c16.3,19.2,32.6,38.4,51.1,55.7C278.6,1673.3,279.1,1677.6,280.1,1680z"/>
		<path class="st1" d="M898.3,1758.7c-13.6,0.5-22.8-13.5-16.1-26.4c10.8-20.6,21.6-41.2,30.5-62.8c3.9-9.4,12.1-14,21.8-10.2
			c9.8,3.8,15.1,11.4,11.2,22.8c-8.3,23.8-19.5,46.2-32.8,67.5C909.8,1755,905,1758.7,898.3,1758.7z"/>
		<path class="st1" d="M702.7,1877.4c-11.6-1-22.9-1.9-34.2-3.1c-11.4-1.3-17.5-8-16.8-19.3c0.7-11.6,8.6-17.7,19.5-16.3
			c22.2,2.9,44.2,2,66.3-0.4c11.1-1.2,18.9,3.6,20.2,15.4c1.4,12.7-5.9,19-17.6,20.4C727.7,1875.6,715.1,1876.3,702.7,1877.4z"/>
		<path class="st1" d="M631.3,1620.1c0.5,3.4-1.8,7.6-4.4,11.7c-12.2,19.4-26.6,37-43.1,53c-9.1,8.8-18.9,11.8-28.1,1.8
			c-8.3-9-6.2-18.6,2.5-26.9c15.2-14.7,28-31.3,39.5-49c5-7.7,11.8-11.8,21.4-8.4C626.7,1605,630.8,1610.3,631.3,1620.1z"/>
		<path class="st1" d="M541.4,1541.8c-0.8,2.9-1.4,6.5-2.9,9.7c-9.1,18.9-15.4,38.6-19.8,59.1c-2.5,11.8-9.9,17.6-22.1,15.1
			c-11.6-2.4-15.4-11.1-13.3-21.7c4.8-24.6,12.7-48.3,24.2-70.7c4.5-8.8,11.8-11.3,21-9.2C537.5,1526.1,540.8,1532.7,541.4,1541.8z"
			/>
		<path class="st1" d="M625.1,1838.6c0,12-12.4,21.4-23.9,16.4c-25.1-10.8-46.9-26.7-64.8-47.3c-6.8-7.9-6.3-16.9,1.2-24.2
			c6.9-6.7,15.9-7.6,22.7-1c17.5,16.7,36.6,30.9,58,42.1C623.6,1827.3,624.3,1833.2,625.1,1838.6z"/>
		<path class="st1" d="M383.8,1755.3c-27.2-4.2-51.8-10.7-75-22c-10.3-5-13.3-14.2-8.8-24.1c4.1-9.1,12.5-12.8,22.4-8.7
			c21,8.6,42.4,15.6,65,19.1c10.2,1.5,15.8,9.4,14.8,19.3C401,1749.6,393.2,1755,383.8,1755.3z"/>
		<path class="st1" d="M198.3,1571.7c-0.4,9.4-3.9,15.2-11.5,18.1c-8.3,3.1-16.2,1.5-20.5-6.1c-13.5-23.5-22.8-48.9-29.3-75.1
			c-2.1-8.6,3.3-14.9,11.1-18.5c7.6-3.5,16.3-1.8,19.2,4.8C178.7,1520.5,188.4,1546.8,198.3,1571.7z"/>
		<path class="st1" d="M146.8,1356.4c4.6,4.8,8.2,10,7.8,17.3c-0.9,21.6,1.6,43,3.8,64.4c1.2,12.4-2.7,21.8-16.5,22.7
			c-13.8,0.9-18.4-8.6-19.5-20.4c-2-20.8-4.2-41.6-4.1-62.6c0.1-9,2.5-16.3,8.9-22.3C134,1350.4,140.5,1350.9,146.8,1356.4z"/>
		<path class="st1" d="M876,1786.8c0.5,11.3-3.1,16-7.5,20.3c-16.7,16.6-35.2,30.7-55.9,42.1c-10.7,5.9-20.2,5.1-26.4-5.5
			c-6.4-10.8-1.8-19.8,8.5-25.6c18.5-10.3,34.9-23.3,50-38c5.9-5.8,12.9-8.7,21.2-4.2C872.3,1779.3,875.7,1784.4,876,1786.8z"/>
		<path class="st1" d="M675,1505.9c-0.4,20.1-6.7,38.9-13.4,57.5c-4.1,11.6-11.6,19.2-24.4,14.7c-12.8-4.5-14.1-15.2-9.7-26.6
			c7.2-18.6,12.1-37.5,11.9-57.7c-0.1-11.7,5.8-20.1,18.4-19.6c11.4,0.4,16.8,8.1,17.2,19.2C675.2,1497.5,675,1501.7,675,1505.9z"/>
		<path class="st1" d="M558.2,1503.2c-15.6-0.4-23.9-14.9-15.4-27.1c15.8-22.7,36.2-40,64.8-44.5c12.6-2,23.9,1.4,26,15.4
			c1.9,13.2-6.5,19-19.4,20.2c-16.7,1.6-27.9,12.7-38.3,24.7C570.9,1497.8,566,1504.4,558.2,1503.2z"/>
		<path class="st1" d="M973,1578.7c-2.5,13.4-4.2,26.5-7.7,39c-2.7,9.6-10.5,14.7-20.8,12.6c-10-2.1-15.6-9.1-14-19.5
			c1.9-12.9,4.1-25.9,7.5-38.6c2.4-9.1,9.7-13.2,19.4-11.9C968.3,1561.9,971.6,1569.7,973,1578.7z"/>
		<path class="st1" d="M165.4,1278c-1.7,8.7-3.7,21.7-6.9,34.4c-2.3,9.2-9.4,14.1-18.9,12.7c-10.2-1.4-16.5-8.4-15.5-18.6
			c1.2-13,3.7-26,6.9-38.7c2.5-9.7,9.8-15.5,20.2-13.5C161.1,1256.3,166.4,1263.1,165.4,1278z"/>
		<path class="st0" d="M1344.7,1406.7c1.7-4.7,4.9-9.6,9.6-7.8c2.1,0.8,4.4,8.2,1.8,13.1C1352.3,1410.3,1348.5,1408.5,1344.7,1406.7
			z"/>
		<path class="st0" d="M648.5,1001.3c3.8-1,4.4-8.4,9.8-5.6c6.3,3.3,0.5,8.5,1.3,12.7C655.2,1007.3,651.3,1005.1,648.5,1001.3z"/>
		<path class="st0" d="M1327.3,1398c4.6-1.7,8.5-9,13.9-3c3.2,3.5-4,4.7-4,8.2C1333.7,1402,1329.6,1401.6,1327.3,1398z"/>
		<path class="st0" d="M1523.7,1221.2c-12.5,29.8-25.1,59.5-37.2,89.4c-3,7.4-6.9,12.5-16.8,12.1c-7.9-0.7-12.5-5.9-9.1-14.4
			c13.1-32.7,26.7-65.2,40.5-97.7c3.3-7.8,10.4-10.1,18-7.2C1528.3,1206.8,1526.8,1213.9,1523.7,1221.2z"/>
		<path class="st0" d="M1634.8,954.3c-1,2.6-2.5,6.6-4.1,10.4c-24.8,59.6-49.7,119.1-74.5,178.6c-0.7,1.7-1.3,3.3-2,5
			c-3.7,8.9-9.9,14.3-19.6,10.3c-9.9-4.1-7.3-12.2-4.1-19.8c18.9-45.2,37.8-90.5,56.7-135.7c7.3-17.6,14.5-35.3,22.1-52.8
			c3.1-7.2,8.7-11.6,17.2-9.3C1632.3,942.6,1635.7,946.5,1634.8,954.3z"/>
		<path class="st0" d="M1226.2,1120.3c0.2-4.8,0.3-9.6,0.5-14.4C1228.8,1110.7,1230.7,1115.6,1226.2,1120.3z"/>
		<path class="st0" d="M1428,882.1c4.7-5.2,9.4-10.3,14.1-15.5C1440.4,874.4,1434.8,878.8,1428,882.1z"/>
		<path class="st0" d="M1460.3,845.2c-4,6.6-6.7,14.2-14.7,17.4C1449,855.5,1454.1,849.9,1460.3,845.2z"/>
		<path class="st0" d="M1460.3,845.2c-0.5,6.3-0.4,12.7-1.7,18.8c-0.8,3.7-2.5,9.1-7.4,8.5c-4.7-0.6-4.9-5.9-5.5-9.9
			C1449,855.5,1454.1,849.9,1460.3,845.2z"/>
		<path class="st0" d="M1236,1128.7c-3.5-3-6.7-5.7-9.9-8.4c0.2-4.8,0.3-9.6,0.5-14.4C1240,1114.1,1240,1114.1,1236,1128.7z"/>
		<path class="st0" d="M980.8,1152.7c-1.3-2.6-2.5-5.2-3.8-7.8c-1.7-3.4-2.3-6.6,1.8-8.9c2.8-1.5,5.7-1.3,8.2,0.3
			c3.9,2.6,2.9,6.1,0.8,9.1C985.9,1148.2,983.2,1150.3,980.8,1152.7L980.8,1152.7z"/>
		<path class="st0" d="M1428,882.1c4.7-5.2,9.4-10.3,14.1-15.5C1446.2,879.7,1443.1,886.4,1428,882.1z"/>
		<path class="st0" d="M831.3,848c4.9-2.1,8.8-5.8,13.4-1.7c0.9,0.8,0.9,4.2,0.4,4.5C840.2,853.5,836.4,849.5,831.3,848z"/>
		<path class="st0" d="M1717.9,509.3c-2-2.4-7.7-1.5-4.5-5.8c1.5-2,0.3-6.7,4.4-5.9c1.6,0.3,3.1,3.3,3.9,5.3
			C1723.3,507,1720.2,507.7,1717.9,509.3z"/>
		<path class="st0" d="M1146.1,995.6c1.5,1,5.2,2.9,5,3.3c-1.2,3-3.1,5.7-4.8,8.4c-1.4-1.7-3.2-3.3-4.2-5.3
			C1140.5,998.8,1141.8,996.6,1146.1,995.6z"/>
		<path class="st0" d="M1013.8,1126.3c1.8-7.8,4.9-11.2,12.3-12.5C1023.8,1119.8,1020.2,1122.7,1013.8,1126.3z"/>
		<path class="st0" d="M1201.6,976.7c-1.5-1.7-3.4-3.2-4.5-5.1c-1.3-2.3-3.7-4.9-1.4-7.8c0.5-0.7,2.2-1.1,3-0.8
			c3.3,1.1,4,3.6,3.3,6.9C1201.6,972.1,1201.8,974.4,1201.6,976.7z"/>
		<path class="st0" d="M1312.2,1057.8c-2.6-0.4-4.8-2-4.6-4.5c0.2-2.1,2-4,3.1-6c1.3,1.8,3,3.4,4,5.3
			C1315.9,1055.1,1315.6,1057.3,1312.2,1057.8z"/>
		<path class="st0" d="M980.8,1152.7c-0.6,3,8.3,3.1,2.3,7.6c-1.9,1.4-4.7,2.5-6.4,0.1C973.6,1155.8,977.8,1154.5,980.8,1152.7
			L980.8,1152.7z"/>
		<path class="st0" d="M1642.9,669.6c-0.5,3.4-1.8,5.4-4.6,4.5c-1.2-0.4-2.8-2.8-2.5-3.8c0.5-2.1,2.2-3.9,3.5-5.8
			C1640.6,666.4,1641.9,668.2,1642.9,669.6z"/>
		<path class="st0" d="M1634.8,954.3c-1,2.6-2.5,6.6-4.1,10.4c-24.8,59.6-49.7,119.1-74.5,178.6c-0.7,1.7-1.3,3.3-2,5
			c-3.7,8.9-9.9,14.3-19.6,10.3c-9.9-4.1-7.3-12.2-4.1-19.8c18.9-45.2,37.8-90.5,56.7-135.7c7.3-17.6,14.5-35.3,22.1-52.8
			c3.1-7.2,8.7-11.6,17.2-9.3C1632.3,942.6,1635.7,946.5,1634.8,954.3z"/>
		<path class="st0" d="M1523.7,1221.2c-12.5,29.8-25.1,59.5-37.2,89.4c-3,7.4-6.9,12.5-16.8,12.1c-7.9-0.7-12.5-5.9-9.1-14.4
			c13.1-32.7,26.7-65.2,40.5-97.7c3.3-7.8,10.4-10.1,18-7.2C1528.3,1206.8,1526.8,1213.9,1523.7,1221.2z"/>
	</g>
	<path class="st1" d="M1523.7,1192.7c-12.5,29.8-25.1,59.5-37.2,89.4c-3,7.4-6.9,12.5-16.8,12.1c-7.9-0.7-12.5-5.9-9.1-14.4
		c13.1-32.7,26.7-65.2,40.5-97.7c3.3-7.8,10.4-10.1,18-7.2C1528.3,1178.2,1526.8,1185.4,1523.7,1192.7z"/>
	<path class="st1" d="M1634.8,925.7c-1,2.6-2.5,6.6-4.1,10.4c-24.8,59.6-49.7,119.1-74.5,178.6c-0.7,1.7-1.3,3.3-2,5
		c-3.7,8.9-9.9,14.3-19.6,10.3c-9.9-4.1-7.3-12.2-4.1-19.8c18.9-45.2,37.8-90.5,56.7-135.7c7.3-17.6,14.5-35.3,22.1-52.8
		c3.1-7.2,8.7-11.6,17.2-9.3C1632.3,914.1,1635.7,917.9,1634.8,925.7z"/>
	<path class="st1" d="M1930.7,240.2C1837,288.4,1743,336.1,1649,383.9c-116.3,59.2-232.6,118.3-348.9,177.4
		c-156.5,79.6-313,159.1-469.5,238.6c-73.2,37.2-146.4,74.4-219.6,111.6c-19.4,9.9-20.3,24.3-2.1,36.6c12.8,8.7,26.4,16.5,39.6,24.6
		c5.4-0.2,9.8,1.1,11.1,7.1c89.5,58.1,178.9,116.4,268.7,174.1c10.8,6.9,15,14.8,16.6,27.2c12.3,94,26.1,187.8,37.6,281.9
		c2.6,20.9,17.9,26.6,35.7,17.4c70.7-36.7,143-70.4,213.1-108.3c32.6-17.7,61.9-28.6,94.3-3c0.4,0.3,1.2,0.1,1.8,0.2
		c2.9,2.6,10.6-4.1,9.9,5.2c2.5,1.2,4.9,2.4,7.4,3.5c7.9-7.1,8.8,0.9,11.4,5.3c41.3,20.5,82.5,41.1,123.9,61.4
		c19.7,9.7,26.9,6.5,35.4-14.4c1.8-4.4,3.7-8.8,5.4-13.2c133.6-347,267.1-694.1,400.9-1041c14.7-38.2,26.7-77.4,44.1-114.4v-18
		C1955.1,232.6,1944.1,233.3,1930.7,240.2z M931.8,1113.9c-9.3-8.2-20.5-14.4-30.8-21.4c-4.6-0.8-8.1-3-10.9-6.7
		c-57.5-36.8-115.1-73.5-172.6-110.3c-21.6-13.9-43.1-27.8-67.2-43.4c42.3-21.5,82.5-42,122.6-62.4
		c356.8-181.4,713.6-362.8,1070.4-544.1c2.1-1,4.4-1.8,6.6-2.7c3.2-2.9,7.7-7.7,10.9-3.5c2.9,3.9-3.4,6-6.7,7.9
		c-25.2,22-50.3,44-75.4,66.1c-2.9,4.3-6.4,7.7-11.2,9.8c-61.5,54.5-122.9,109.2-184.7,163.5c-206.6,181.7-413.4,363.1-619.7,545
		C952,1121.5,943.8,1124.6,931.8,1113.9z M1741.6,475.1c1.4,1.3,2.8,2.7,4.2,4c-25.3,29.9-50.5,59.9-77.6,92
		c-4.9-19.8-1.9-32.2,12.9-43.4C1702.4,511.6,1721.6,492.8,1741.6,475.1z M1628.1,618.4c-18.4,19.1-34.7,40.2-52.6,61.2
		c-1.7-3.3-2.4-4.1-2.7-5.1c-10.7-33.9-0.4-59.1,29.9-77.9c13-8.1,23.5-20.1,35.7-30.8C1651.2,587.3,1643.2,602.8,1628.1,618.4z
		 M1532.2,731.4c-13.9,11.7-24.3,27.7-38.1,43.9c-13.9-76.7-13.9-76.7,50.4-125.2C1546.7,679.3,1561.1,707.1,1532.2,731.4z
		 M1460.3,816.6c-6.1,4.8-11.2,10.4-14.7,17.4c-1.2,1.4-2.3,2.7-3.4,4.1c-4.7,5.2-9.4,10.3-14.1,15.5c-6.5,7.4-13.1,14.7-21.9,24.6
		c-4.7-33.3-9.1-63.6-13-94.1c-0.3-2.1,2.9-5,5-6.9c20.1-17.8,40.3-35.5,62.9-55.3c3.4,27.3,6.6,51.9,9.5,76.6
		C1471.4,806.6,1462.5,809.8,1460.3,816.6z M1377.8,912.1c-18.7,21.8-37.2,43.6-58.8,68.9c-4.4-42.6-8.3-80.7-12.3-118.8
		c-0.5-5.1,3-7.6,6.1-10.3c18.4-16.2,36.8-32.3,57.7-50.7c4.2,35,8.2,67.4,12.1,99.7C1383.2,905.6,1380.7,908.8,1377.8,912.1z
		 M1285.4,1020.9c-11.8,12.3-22.3,25.9-35.9,41.9c-7.1-45.6-13.4-87.2-19.9-128.8c-0.9-5.9,0.7-10.1,5.4-14
		c15.5-13.1,30.6-26.6,48.1-41.9c4.1,40,7.5,76.9,11.8,113.7C1296.1,1003.5,1293.6,1012.4,1285.4,1020.9z M1226.7,1077.3
		c-0.2,4.8-0.3,9.6-0.5,14.4c-17.7,20.1-35.4,40.2-55.6,63.1c-2-16.4-3.7-30-5.1-43.7c-3.7-36.3-6.8-72.7-10.7-109
		c-2-18,14-21.4,23.3-30.3l0,0c7.8-7.9,15.7-15.8,23.5-23.7c8.2,1,5.7,7.8,6.5,12.6C1214.4,999.6,1220.5,1038.4,1226.7,1077.3z
		 M1142.3,1188.9c-22,22.4-38.6,48.5-54.3,77.2c-4.4-64.7-9-129.4-13.3-194c-0.3-4.5-1.9-9.5,2.6-13.4
		c17.1-14.8,34.1-29.7,53.3-46.5c5.5,56.7,10.7,110.2,16,163.7C1147.2,1181,1146,1185.3,1142.3,1188.9z M1014,1423.6
		c-9.1-66.3-17.5-127.8-25.9-189.4c-3.3-23.8-6.2-47.6-10.1-71.3c-1.7-10.4,0.1-17.8,8.7-24.9c20.7-17.1,40.6-35.2,63.1-54.8
		c2.2,30.6,4.2,58.5,6.3,86.4c3.4,44.9,6.8,89.8,10.1,134.7c0.4,5.3,1.9,10.5-0.8,15.8C1048.8,1353.2,1032.4,1386.3,1014,1423.6z
		 M1055.6,1420.8c26.1-52.7,50.2-100.2,73.1-148.1c5.9-12.3,10.2-13.7,21.7-6c29.8,20,60.6,38.6,94.2,59.6
		C1181.2,1357.9,1120.3,1388.4,1055.6,1420.8z M1841.6,479.2c-115.7,301.9-231.5,603.8-347.2,905.8c-8.6,22.4-8.5,22.4-29.4,12.5
		c-101.9-48.2-203.2-97.4-296.6-161.3c-10.4-7.1-10.4-10.6-2.8-19.5c233-273.4,465.7-546.9,698.5-820.5c2.2-2.6,4.5-5.1,6.8-7.6
		c1.4,0.8,2.8,1.5,4.2,2.2C1863.9,420.3,1852.9,449.8,1841.6,479.2z"/>
	<path class="st0" d="M533.6,1687c-5.9,7.9-2.6,17.5-1.3,27.5c1,7.1-4.1,13.8-12,16c-8.3,2.3-16.6,0.9-20.2-7.1
		c-4.6-10.1-10.6-8.6-18.8-6c-9.7,3.1-19.6,5.7-29.7,7.1c-10.1,1.4-17.8-2.9-19.9-13.7c-2-10.3,2.1-17.5,12.4-20.7
		c1.7-0.5,3.4-1.2,5.1-1.7c10.3-3,23-3.2,30.5-9.5c8.9-7.5-0.1-19.9-0.3-30.2c-0.3-12.2,4.6-20.7,16.4-21.9
		c11.9-1.2,18.7,6.4,19.7,18.6c0.9,10.2,1.1,20.2,12.6,25.6C533.3,1673.4,534.3,1679.6,533.6,1687z"/>
	<path class="st0" d="M280.1,1651.4c-0.2,8.3-3.4,13.9-9.6,17.2c-6.3,3.4-13.1,3.4-18.7-1.1c-20.8-16.6-38.4-36.4-53.2-58.4
		c-5.1-7.6-3.7-16.3,3.9-22.6c7.5-6.2,16.7-6.8,22.8,0.3c16.3,19.2,32.6,38.4,51.1,55.7C278.6,1644.8,279.1,1649,280.1,1651.4z"/>
	<path class="st0" d="M898.3,1730.2c-13.6,0.5-22.8-13.5-16.1-26.4c10.8-20.6,21.6-41.2,30.5-62.8c3.9-9.4,12.1-14,21.8-10.2
		c9.8,3.8,15.1,11.4,11.2,22.8c-8.3,23.8-19.5,46.2-32.8,67.5C909.8,1726.4,905,1730.1,898.3,1730.2z"/>
	<path class="st0" d="M702.7,1848.8c-11.6-1-22.9-1.9-34.2-3.1c-11.4-1.3-17.5-8-16.8-19.3c0.7-11.6,8.6-17.7,19.5-16.3
		c22.2,2.9,44.2,2,66.3-0.4c11.1-1.2,18.9,3.6,20.2,15.4c1.4,12.7-5.9,19-17.6,20.4C727.7,1847,715.1,1847.8,702.7,1848.8z"/>
	<path class="st0" d="M631.3,1591.6c0.5,3.4-1.8,7.6-4.4,11.7c-12.2,19.4-26.6,37-43.1,53c-9.1,8.8-18.9,11.8-28.1,1.8
		c-8.3-9-6.2-18.6,2.5-26.9c15.2-14.7,28-31.3,39.5-49c5-7.7,11.8-11.8,21.4-8.4C626.7,1576.5,630.8,1581.7,631.3,1591.6z"/>
	<path class="st0" d="M541.4,1513.3c-0.8,2.9-1.4,6.5-2.9,9.7c-9.1,18.9-15.4,38.6-19.8,59.1c-2.5,11.8-9.9,17.6-22.1,15.1
		c-11.6-2.4-15.4-11.1-13.3-21.7c4.8-24.6,12.7-48.3,24.2-70.7c4.5-8.8,11.8-11.3,21-9.2C537.5,1497.6,540.8,1504.1,541.4,1513.3z"
		/>
	<path class="st0" d="M625.1,1810c0,12-12.4,21.4-23.9,16.4c-25.1-10.8-46.9-26.7-64.8-47.3c-6.8-7.9-6.3-16.9,1.2-24.2
		c6.9-6.7,15.9-7.6,22.7-1c17.5,16.7,36.6,30.9,58,42.1C623.6,1798.7,624.3,1804.6,625.1,1810z"/>
	<path class="st0" d="M383.8,1726.8c-27.2-4.2-51.8-10.7-75-22c-10.3-5-13.3-14.2-8.8-24.1c4.1-9.1,12.5-12.8,22.4-8.7
		c21,8.6,42.4,15.6,65,19.1c10.2,1.5,15.8,9.4,14.8,19.3C401,1721,393.2,1726.4,383.8,1726.8z"/>
	<path class="st0" d="M198.3,1543.1c-0.4,9.4-3.9,15.2-11.5,18.1c-8.3,3.1-16.2,1.5-20.5-6.1c-13.5-23.5-22.8-48.9-29.3-75.1
		c-2.1-8.6,3.3-14.9,11.1-18.5c7.6-3.5,16.3-1.8,19.2,4.8C178.7,1491.9,188.4,1518.3,198.3,1543.1z"/>
	<path class="st0" d="M146.8,1327.8c4.6,4.8,8.2,10,7.8,17.3c-0.9,21.6,1.6,43,3.8,64.4c1.2,12.4-2.7,21.8-16.5,22.7
		c-13.8,0.9-18.4-8.6-19.5-20.4c-2-20.8-4.2-41.6-4.1-62.6c0.1-9,2.5-16.3,8.9-22.3C134,1321.8,140.5,1322.3,146.8,1327.8z"/>
	<path class="st0" d="M876,1758.3c0.5,11.3-3.1,16-7.5,20.3c-16.7,16.6-35.2,30.7-55.9,42.1c-10.7,5.9-20.2,5.1-26.4-5.5
		c-6.4-10.8-1.8-19.8,8.5-25.6c18.5-10.3,34.9-23.3,50-38c5.9-5.8,12.9-8.7,21.2-4.2C872.3,1750.8,875.7,1755.8,876,1758.3z"/>
	<path class="st0" d="M675,1477.3c-0.4,20.1-6.7,38.9-13.4,57.5c-4.1,11.6-11.6,19.2-24.4,14.7c-12.8-4.5-14.1-15.2-9.7-26.6
		c7.2-18.6,12.1-37.5,11.9-57.7c-0.1-11.7,5.8-20.1,18.4-19.6c11.4,0.4,16.8,8.1,17.2,19.2C675.2,1468.9,675,1473.1,675,1477.3z"/>
	<path class="st0" d="M558.2,1474.7c-15.6-0.4-23.9-14.9-15.4-27.1c15.8-22.7,36.2-40,64.8-44.5c12.6-2,23.9,1.4,26,15.4
		c1.9,13.2-6.5,19-19.4,20.2c-16.7,1.6-27.9,12.7-38.3,24.7C570.9,1469.3,566,1475.8,558.2,1474.7z"/>
	<path class="st0" d="M973,1550.1c-2.5,13.4-4.2,26.5-7.7,39c-2.7,9.6-10.5,14.7-20.8,12.6c-10-2.1-15.6-9.1-14-19.5
		c1.9-12.9,4.1-25.9,7.5-38.6c2.4-9.1,9.7-13.2,19.4-11.9C968.3,1533.3,971.6,1541.1,973,1550.1z"/>
	<path class="st0" d="M165.4,1249.4c-1.7,8.7-3.7,21.7-6.9,34.4c-2.3,9.2-9.4,14.1-18.9,12.7c-10.2-1.4-16.5-8.4-15.5-18.6
		c1.2-13,3.7-26,6.9-38.7c2.5-9.7,9.8-15.5,20.2-13.5C161.1,1227.7,166.4,1234.5,165.4,1249.4z"/>
	<path class="st1" d="M1344.7,1378.2c1.7-4.7,4.9-9.6,9.6-7.8c2.1,0.8,4.4,8.2,1.8,13.1C1352.3,1381.7,1348.5,1380,1344.7,1378.2z"
		/>
	<path class="st1" d="M648.5,972.8c3.8-1,4.4-8.4,9.8-5.6c6.3,3.3,0.5,8.5,1.3,12.7C655.2,978.7,651.3,976.6,648.5,972.8z"/>
	<path class="st1" d="M1327.3,1369.4c4.6-1.7,8.5-9,13.9-3c3.2,3.5-4,4.7-4,8.2C1333.7,1373.4,1329.6,1373.1,1327.3,1369.4z"/>
	<path class="st1" d="M1523.7,1192.7c-12.5,29.8-25.1,59.5-37.2,89.4c-3,7.4-6.9,12.5-16.8,12.1c-7.9-0.7-12.5-5.9-9.1-14.4
		c13.1-32.7,26.7-65.2,40.5-97.7c3.3-7.8,10.4-10.1,18-7.2C1528.3,1178.2,1526.8,1185.4,1523.7,1192.7z"/>
	<path class="st1" d="M1634.8,925.7c-1,2.6-2.5,6.6-4.1,10.4c-24.8,59.6-49.7,119.1-74.5,178.6c-0.7,1.7-1.3,3.3-2,5
		c-3.7,8.9-9.9,14.3-19.6,10.3c-9.9-4.1-7.3-12.2-4.1-19.8c18.9-45.2,37.8-90.5,56.7-135.7c7.3-17.6,14.5-35.3,22.1-52.8
		c3.1-7.2,8.7-11.6,17.2-9.3C1632.3,914.1,1635.7,917.9,1634.8,925.7z"/>
	<path class="st1" d="M1226.2,1091.7c0.2-4.8,0.3-9.6,0.5-14.4C1228.8,1082.2,1230.7,1087,1226.2,1091.7z"/>
	<path class="st1" d="M1428,853.5c4.7-5.2,9.4-10.3,14.1-15.5C1440.4,845.9,1434.8,850.2,1428,853.5z"/>
	<path class="st1" d="M1460.3,816.6c-4,6.6-6.7,14.2-14.7,17.4C1449,827,1454.1,821.4,1460.3,816.6z"/>
	<path class="st1" d="M1460.3,816.6c-0.5,6.3-0.4,12.7-1.7,18.8c-0.8,3.7-2.5,9.1-7.4,8.5c-4.7-0.6-4.9-5.9-5.5-9.9
		C1449,827,1454.1,821.4,1460.3,816.6z"/>
	<path class="st1" d="M1236,1100.1c-3.5-3-6.7-5.7-9.9-8.4c0.2-4.8,0.3-9.6,0.5-14.4C1240,1085.6,1240,1085.6,1236,1100.1z"/>
	<path class="st1" d="M980.8,1124.2c-1.3-2.6-2.5-5.2-3.8-7.8c-1.7-3.4-2.3-6.6,1.8-8.9c2.8-1.5,5.7-1.3,8.2,0.3
		c3.9,2.6,2.9,6.1,0.8,9.1C985.9,1119.6,983.2,1121.8,980.8,1124.2L980.8,1124.2z"/>
	<path class="st1" d="M1428,853.5c4.7-5.2,9.4-10.3,14.1-15.5C1446.2,851.1,1443.1,857.8,1428,853.5z"/>
	<path class="st1" d="M831.3,819.5c4.9-2.1,8.8-5.8,13.4-1.7c0.9,0.8,0.9,4.2,0.4,4.5C840.2,824.9,836.4,821,831.3,819.5z"/>
	<path class="st1" d="M1717.9,480.8c-2-2.4-7.7-1.5-4.5-5.8c1.5-2,0.3-6.7,4.4-5.9c1.6,0.3,3.1,3.3,3.9,5.3
		C1723.3,478.4,1720.2,479.2,1717.9,480.8z"/>
	<path class="st1" d="M1146.1,967.1c1.5,1,5.2,2.9,5,3.3c-1.2,3-3.1,5.7-4.8,8.4c-1.4-1.7-3.2-3.3-4.2-5.3
		C1140.5,970.3,1141.8,968,1146.1,967.1z"/>
	<path class="st1" d="M1013.8,1097.8c1.8-7.8,4.9-11.2,12.3-12.5C1023.8,1091.3,1020.2,1094.2,1013.8,1097.8z"/>
	<path class="st1" d="M1201.6,948.1c-1.5-1.7-3.4-3.2-4.5-5.1c-1.3-2.3-3.7-4.9-1.4-7.8c0.5-0.7,2.2-1.1,3-0.8
		c3.3,1.1,4,3.6,3.3,6.9C1201.6,943.5,1201.8,945.9,1201.6,948.1z"/>
	<path class="st1" d="M1312.2,1029.3c-2.6-0.4-4.8-2-4.6-4.5c0.2-2.1,2-4,3.1-6c1.3,1.8,3,3.4,4,5.3
		C1315.9,1026.6,1315.6,1028.8,1312.2,1029.3z"/>
	<path class="st1" d="M980.8,1124.2c-0.6,3,8.3,3.1,2.3,7.6c-1.9,1.4-4.7,2.5-6.4,0.1C973.6,1127.3,977.8,1125.9,980.8,1124.2
		L980.8,1124.2z"/>
	<path class="st1" d="M1642.9,641.1c-0.5,3.4-1.8,5.4-4.6,4.5c-1.2-0.4-2.8-2.8-2.5-3.8c0.5-2.1,2.2-3.9,3.5-5.8
		C1640.6,637.8,1641.9,639.7,1642.9,641.1z"/>
	<path class="st1" d="M1634.8,925.7c-1,2.6-2.5,6.6-4.1,10.4c-24.8,59.6-49.7,119.1-74.5,178.6c-0.7,1.7-1.3,3.3-2,5
		c-3.7,8.9-9.9,14.3-19.6,10.3c-9.9-4.1-7.3-12.2-4.1-19.8c18.9-45.2,37.8-90.5,56.7-135.7c7.3-17.6,14.5-35.3,22.1-52.8
		c3.1-7.2,8.7-11.6,17.2-9.3C1632.3,914.1,1635.7,917.9,1634.8,925.7z"/>
	<path class="st1" d="M1523.7,1192.7c-12.5,29.8-25.1,59.5-37.2,89.4c-3,7.4-6.9,12.5-16.8,12.1c-7.9-0.7-12.5-5.9-9.1-14.4
		c13.1-32.7,26.7-65.2,40.5-97.7c3.3-7.8,10.4-10.1,18-7.2C1528.3,1178.2,1526.8,1185.4,1523.7,1192.7z"/>
</g>
</svg>
