<?xml version="1.0" encoding="utf-8"?>
<!-- Generator: Adobe Illustrator 25.0.0, SVG Export Plug-In . SVG Version: 6.00 Build 0)  -->
<svg version="1.1" id="Layer_1" xmlns="http://www.w3.org/2000/svg" xmlns:xlink="http://www.w3.org/1999/xlink" x="0px" y="0px"
	 viewBox="0 0 1000 1000" style="enable-background:new 0 0 1000 1000;" xml:space="preserve">
<style type="text/css">
	.st0{fill:#01DF00;}
</style>
<g>
	<path class="st0" d="M13.7,329.2c7.5-2.4,14.9-6.8,22.4-6.9c38.6-0.7,77.3-1.2,115.9,0.4c7.6,0.3,14.9,10.2,22.3,15.6
		c-7.3,5.5-14.4,15.4-21.9,15.7c-38.6,1.6-77.3,1.1-115.9,0.5c-7.6-0.1-15.2-3.8-22.8-5.8C13.7,342.2,13.7,335.7,13.7,329.2z"/>
	<path class="st0" d="M520,99.4c-198.1-0.1-320.9,195.1-226.4,349.9c20.7,33.9,44.5,65.9,63.5,100.6c13.4,24.4,22.4,51.6,30.1,78.5
		c1.9,6.6-9.3,16.9-14.4,25.5c-6-7.2-13.8-13.6-17.6-21.8c-11.5-24.7-19.4-51.2-32.5-74.9c-18.8-33.9-43-64.9-61.5-99
		c-55.3-101.4-43.9-199.8,26.1-288.4c71.3-90.2,168-123.1,279.8-94.6c110.6,28.1,176.9,102.6,201,214
		c12.7,58.9,1.8,114.6-27.4,166.5c-17.8,31.7-40.3,60.9-57.5,92.9c-15,28.1-25,58.8-38.4,87.8c-3.2,6.9-11.1,11.7-16.8,17.5
		c-5.3-6.8-16.3-15.2-15-20.3c6.8-26.3,13.6-53.5,26.4-77.1c22-40.5,50.1-77.6,72.6-117.8c37.7-67.2,37.1-136.9,2.8-204.9
		C670.3,145.4,596.3,102.1,520,99.4z"/>
	<path class="st0" d="M415.1,897.4c67.9,29.9,133.6,30.9,196.8-10.7c7.2-4.7,19.3-1.8,29.2-2.4c-3.2,9.4-3.4,22.3-9.9,27.7
		c-65,54.2-195.4,54.2-261.7,0.7c-6.2-5-13.5-14.7-12.6-21c0.9-6.3,10.8-13.7,18.2-16.2c80.4-27.3,160.9-54.2,241.8-79.9
		c7.3-2.3,22.3,1.8,25.4,7.5c7.3,13.5-4.4,19.5-16.1,23.3C564,847.2,501.9,868,439.8,888.8C431.5,891.6,423.3,894.5,415.1,897.4z"/>
	<path class="st0" d="M510.4,739.1c-42.8,0-85.6,0-128.4,0c-12.7,0-27.5-0.6-25.1-17.2c0.9-6.2,16.1-14.6,24.9-14.7
		c79.3-1.1,158.5-1.1,237.8,0c8.3,0.1,16.5,8.8,24.8,13.5c-6.5,7-11.7,17.8-19.7,20.5c-80.1,27.6-160.6,54.3-241.3,80
		c-7.3,2.3-22.3-1.8-25.5-7.5c-7.5-13.5,4.3-19.4,15.9-23.3c45.8-15.3,91.5-30.8,137.2-46.2C510.9,742.5,510.7,740.8,510.4,739.1z"
		/>
	<path class="st0" d="M312.7,334.7c7.6-103.2,81.1-176.4,175.2-183.2c12.4-0.9,26.1-1.8,27.6,15.2c1.3,15.9-11.2,16.4-23.1,17.8
		c-84.4,9.4-136,60.7-146.2,145.1c-1.5,12.3-1.6,27.8-18.7,23.5C319.6,351,314.6,337.3,312.7,334.7z"/>
	<path class="st0" d="M905.8,354.7c-20.1,0-40.4,1.4-60.3-0.8c-7-0.8-13.1-10.2-19.5-15.6c6.6-5.4,13.1-15.3,19.9-15.6
		c40.2-1.5,80.5-1.5,120.8,0c6.8,0.3,13.2,10.4,19.7,15.9c-6.7,5.3-13,14.5-20.1,15.3C946.2,356.1,926,354.7,905.8,354.7z"/>
	<path class="st0" d="M775.2,521.3c7.1,3.7,12.4,5.7,16.8,8.9c30.7,22.1,61.9,43.7,91.4,67.3c6.3,5.1,6.3,18.1,9.2,27.5
		c-9.3-0.3-20.8,2.8-27.4-1.6c-32.1-21.4-63.3-44.4-93.9-68c-5.5-4.3-8.3-14.4-8.7-22.1C762.5,529.6,770.6,525.4,775.2,521.3z"/>
	<path class="st0" d="M239.5,134.6c1,15.3-12.9,24.5-24.8,16.4c-35.2-24.2-69.7-49.3-103.4-75.5c-4.5-3.5-5.5-16.3-2.8-22.6
		c1.5-3.6,16.1-6.5,20.5-3.5c35.2,24.1,69.5,49.5,103.8,75C236.3,126.9,238,132.1,239.5,134.6z"/>
	<path class="st0" d="M774.4,154.5c-2.9-2.4-9.6-5.3-11.5-10.1c-1.9-5-1.2-14.8,2.2-17.3c35.9-27.2,72.4-53.7,109.6-79.1
		c3.5-2.4,15.3,1.5,18.2,5.9c3,4.4,2.4,16.5-1.2,19.2c-35.8,27.3-72.6,53.5-109.1,79.8C781.3,153.7,779.4,153.6,774.4,154.5z"/>
	<path class="st0" d="M239.9,542.2c-3.1,3.7-7,10.7-13,15.1c-30.3,22.7-60.6,45.4-92.1,66.3c-6.5,4.3-18.1,1-27.3,1.2
		c3-9.4,3.2-22.3,9.6-27.4c29.5-23.7,60.5-45.4,91.4-67.3C224,519,238.6,523.4,239.9,542.2z"/>
</g>
</svg>
