<?xml version="1.0" encoding="utf-8"?>
<!-- Generator: Adobe Illustrator 25.0.0, SVG Export Plug-In . SVG Version: 6.00 Build 0)  -->
<svg version="1.1" id="Layer_1" xmlns="http://www.w3.org/2000/svg" xmlns:xlink="http://www.w3.org/1999/xlink" x="0px" y="0px"
	 viewBox="0 0 1000 1000" style="enable-background:new 0 0 1000 1000;" xml:space="preserve">
<style type="text/css">
	.st0{fill:#FFFFFF;}
	.st1{fill:#01DF00;}
</style>
<g>
	<path class="st1" d="M78.04,91.2c5.12-9.19,13.07-11.83,23.31-11.67c28.78,0.44,57.57,0.12,86.36,0.17
		c15.09,0.03,20.81,5.73,21,20.88c0.11,9,0.02,17.99,0.02,27.58c75.18,0,149.54,0,224.92,0c0-9.2-0.06-18.16,0.01-27.12
		c0.13-15.3,6.2-21.33,21.55-21.35c29.34-0.04,58.67-0.04,88.01,0c15.28,0.02,21.34,6.1,21.48,21.42
		c0.08,8.22,0.07,16.45,0.12,24.67c0,0.53,0.25,1.06,0.56,2.28c74.22,0,148.61,0,224.25,0c0-8.83-0.06-17.79,0.01-26.75
		c0.13-16.12,5.7-21.62,21.91-21.63c29.06-0.03,58.12-0.03,87.18,0c15.72,0.02,21.54,5.73,21.57,21.2c0.05,29.61,0.05,59.22,0,88.83
		c-0.03,14.54-5.86,20.7-20.32,20.79c-29.88,0.18-59.77,0.16-89.65,0.01c-15-0.08-20.49-5.92-20.7-21.21
		c-0.11-8.49-0.17-16.99-0.3-25.48c-0.01-0.49-0.47-0.97-0.91-1.8c-43.6,0-87.39,0-132.63,0
		c131.84,67.98,203.29,175.14,216.01,322.35c9.4,0,18.93-0.08,28.46,0.02c13.88,0.14,19.99,6.25,20.03,20.25
		c0.08,30.16,0.08,60.32,0,90.47c-0.04,13.5-5.98,19.94-19.37,20.05c-30.7,0.25-61.41,0.26-92.12-0.01
		c-13.05-0.11-19.01-6.27-19.1-19.4c-0.21-30.71-0.23-61.41,0.01-92.12c0.1-13.41,6.4-19.11,20.09-19.26
		c8.77-0.1,17.54-0.1,26.31-0.2c0.48-0.01,0.95-0.47,1.42-0.73c-6-157.81-130.07-290.48-272.83-314.82c0,7.21,0.09,14.28-0.02,21.36
		c-0.23,13.98-6.16,20.39-19.9,20.49c-30.43,0.22-60.87,0.22-91.3,0c-13.7-0.1-19.61-6.55-19.83-20.56
		c-0.11-7.07-0.02-14.14-0.02-21.35c-145.67,25.27-267.3,160.05-272.8,315.79c8.99,0,17.97-0.04,26.95,0.01
		c14.72,0.08,20.79,5.72,20.87,20.15c0.17,30.16,0.16,60.32,0,90.47c-0.07,14.07-5.98,20.09-20.01,20.18
		c-30.16,0.2-60.32-0.06-90.47,0.13c-9.6,0.06-16.12-4.01-20.15-12.51c0-35.64,0-71.29,0-106.93c5.12-9.18,13.05-12.28,23.29-11.63
		c8.4,0.54,16.87,0.11,25.18,0.11c12.8-147.07,84.08-254.26,215.81-322.21c-45,0-88.86,0-133.59,0c0,9.2,0.06,17.91-0.01,26.63
		c-0.13,16.14-5.61,21.71-21.79,21.76c-29.04,0.09-58.08-0.13-87.12,0.11c-9.99,0.08-17.55-3.07-21.77-12.53
		C78.04,162.48,78.04,126.84,78.04,91.2z M531.4,113.2c-21.96,0-43.13,0-64.39,0c0,21.56,0,42.5,0,63.91c21.63,0,42.81,0,64.39,0
		C531.4,155.62,531.4,134.68,531.4,113.2z M111.33,177.16c21.59,0,42.56,0,63.87,0c0-21.65,0-42.81,0-64.17
		c-21.57,0-42.52,0-63.87,0C111.33,134.38,111.33,155.36,111.33,177.16z M887.12,113.05c-21.86,0-42.83,0-63.85,0
		c0,21.62,0,42.75,0,64.07c21.69,0,42.65,0,63.85,0C887.12,155.59,887.12,134.59,887.12,113.05z M111.3,581.81
		c21.7,0,42.65,0,63.86,0c0-21.69,0-42.83,0-64.09c-21.61,0-42.56,0-63.86,0C111.3,539.15,111.3,560.14,111.3,581.81z
		 M823.01,517.58c0,21.77,0,42.76,0,64.14c21.63,0,42.79,0,63.73,0c0-21.83,0-43.01,0-64.14
		C865.32,517.58,844.56,517.58,823.01,517.58z"/>
	<path class="st1" d="M382.38,921.96c-9.19-5.12-11.76-13.07-11.67-23.3c0.37-41.12,0.11-82.24,0.22-123.36
		c0.01-4.44-0.98-7.26-5.09-9.99c-17.66-11.76-25.61-32.83-20.5-52.38c5.48-20.97,22.26-35.42,43.93-37.37
		c5.96-0.54,12.01-0.08,18.84-0.08c-3.68-19.48-10.28-36.96-18.55-53.86c-11.93-24.35-27.8-45.82-47.27-64.71
		c-11.25-10.91-11.81-15.79-4.25-29.54c7.12-12.96,14.15-25.97,21.49-38.8c3.67-6.42,9.66-11.07,16.91-8.67
		c5.05,1.67,10.71,6.2,12.75,10.9c1.78,4.1-0.1,10.69-2.19,15.36c-4.14,9.21-9.82,17.72-14.23,26.82c-1.08,2.23-0.87,6.69,0.67,8.33
		c35.14,37.56,57.68,81.55,68.24,131.8c0.1,0.5,0.44,0.95,0.83,1.75c37.62,0,75.38,0,113.68,0c1.98-7.89,3.7-15.85,5.99-23.64
		c12-40.9,32.35-77.1,61.59-108.19c3.06-3.25,4.68-5.76,2.02-10.56c-35.72-64.41-71.2-128.96-106.75-193.46
		c-0.59-1.07-1.37-2.02-3.37-4.93c0,11.16,0,20.08,0,29c0,27.96,0.11,55.92-0.1,83.88c-0.04,4.92,1,7.56,6.04,9.74
		c24.62,10.63,37.71,36.76,32.09,62.72c-5.53,25.49-28.33,43.92-54.39,43.97c-26.04,0.04-48.91-18.33-54.53-43.8
		c-5.71-25.89,7.45-52.07,31.84-62.94c3.66-1.63,6.33-2.76,6.29-7.86c-0.28-36.73-0.15-73.47-0.18-110.2c0-0.74-0.28-1.48-0.69-3.53
		c-1.76,2.82-3.06,4.7-4.16,6.69c-10.34,18.69-83.89,152.57-94.32,171.21c-6,10.72-15.02,14.11-23.74,9.29
		c-8.71-4.82-10.79-14.37-4.96-25.02c21.7-39.63,106.76-194.37,128.69-233.86c8.17-14.71,23.2-14.72,31.33,0
		c49.11,88.92,98.1,177.91,147.05,266.92c5.9,10.72,4.75,16.41-5.25,26.07c-31.91,30.84-53.43,67.71-64.67,110.6
		c-0.62,2.36-1.09,4.76-1.89,8.27c5.32,0,10.13-0.13,14.92,0.02c23.23,0.75,41.13,14.41,47.48,36.14
		c6.01,20.59-1.94,41.18-20.45,54.67c-2.46,1.79-4.33,6.1-4.35,9.26c-0.29,41.12-0.41,82.24-0.04,123.36
		c0.09,10.22-2.48,18.18-11.67,23.3c-3.29,0-6.58,0-9.87,0c-9.18-5.12-11.77-13.06-11.67-23.29c0.38-38.63,0.15-77.27,0.15-115.9
		c0-2.87,0-5.73,0-8.44c-64.25,0-127.17,0-190.83,0c0,3.37,0,6.31,0,9.26c0,38.36-0.23,76.72,0.15,115.08
		c0.1,10.22-2.48,18.17-11.67,23.29C388.96,921.96,385.67,921.96,382.38,921.96z M498.35,741c33.69,0,67.38,0.01,101.08-0.03
		c3,0,6.07,0,8.98-0.63c8.01-1.73,12.87-7.89,12.87-15.78c0-7.88-4.86-14.09-12.85-15.79c-3.17-0.67-6.52-0.64-9.8-0.64
		c-66.29-0.03-132.58-0.05-198.87,0.03c-4.06,0-8.32,0.16-12.13,1.39c-6.98,2.25-10.5,7.65-10.5,15c0,7.34,3.52,12.71,10.48,15.02
		c3.54,1.18,7.52,1.37,11.31,1.38C432.06,741.05,465.2,741,498.35,741z M522.15,507.63c0.01-12.5-10.48-23.04-22.95-23.06
		c-12.46-0.02-22.98,10.51-23,23c-0.02,12.58,10.32,22.9,22.94,22.91C511.78,530.5,522.14,520.2,522.15,507.63z"/>
</g>
</svg>
