<?xml version="1.0" encoding="utf-8"?>
<!-- Generator: Adobe Illustrator 25.0.0, SVG Export Plug-In . SVG Version: 6.00 Build 0)  -->
<svg version="1.1" id="Layer_1" xmlns="http://www.w3.org/2000/svg" xmlns:xlink="http://www.w3.org/1999/xlink" x="0px" y="0px"
	 viewBox="0 0 1000 1000" style="enable-background:new 0 0 1000 1000;" xml:space="preserve">
<style type="text/css">
	.st0{fill:#FFFFFF;}
	.st1{fill:#01DF00;}
</style>
<g>
	<path class="st1" d="M695.82,930.8c-131.04,0-262.07,0-393.11,0c-24.35-8.55-33.05-26.09-32.2-51.26
		c1.14-33.52,0.28-67.11,0.28-100.67c0-2.95,0-5.9,0-9.31c-4.21,0-7.26,0-10.3,0c-41.12,0-82.24,0.14-123.36-0.06
		c-23.73-0.11-43.05-9.84-56.07-29.68c-5.38-8.19-7.99-18.19-11.86-27.37c0-105.26,0-210.51,0-315.77c0.52-1.26,1.21-2.48,1.52-3.78
		c6.78-28.59,27.41-48.35,56.46-52.46c11-1.55,22.34-0.72,33.53-0.84c9.68-0.11,19.36-0.02,29.45-0.02c0-4.23,0-7.28,0-10.33
		c0-40.3-0.03-80.61,0.01-120.91c0.02-19.24,10.88-29.94,30.29-30c12.04-0.03,24.07-0.01,36.11-0.01c4.63,0,9.26,0,13.52,0
		c0.39-1.53,0.52-1.79,0.52-2.06c0.07-21.55-0.01-43.1,0.22-64.65c0.25-23.08,17.38-40.69,40.3-40.72
		c125.41-0.14,250.83-0.14,376.24,0c22.58,0.03,39.75,17.39,40.32,39.86c0.15,5.87,0.04,11.75,0.04,17.63c0,16.42,0,32.84,0,49.92
		c17.12,0,33.3-0.02,49.47,0c20.68,0.03,31.14,10.34,31.15,30.81c0.03,40.3,0.01,80.61,0.01,120.91c0,2.97,0,5.95,0,9.52
		c17.48,0,33.95-0.04,50.42,0.01c41.93,0.11,70.5,28.72,70.52,70.81c0.05,96,0.05,192.01,0,288.01
		c-0.02,42.58-28.54,71.1-71.04,71.15c-40.31,0.05-80.62,0.01-120.93,0.01c-2.98,0-5.96,0-9.6,0c0,3.97,0,6.99,0,10.02
		c0,35.55,0.03,71.09-0.04,106.64c-0.01,4.17-0.14,8.43-0.97,12.5C723.23,915.85,711.24,925.02,695.82,930.8z M270.48,662
		c-9.55,0-18.21,0.28-26.85-0.09c-7.38-0.31-12.07-4.61-12.92-11.94c-0.81-7,2.78-11.93,9.41-14.05c2.84-0.91,6.08-0.71,9.14-0.71
		c65.24-0.04,130.47-0.03,195.71-0.03c102.2,0,204.39-0.01,306.59,0.02c10.41,0,16.63,5.34,16.43,13.72
		c-0.2,8.07-6.23,13.01-16.22,13.11c-7.76,0.08-15.52,0.02-23.48,0.02c0,27.27,0,53.67,0,80.62c3.01,0,5.49,0,7.97,0
		c40.88,0,81.76,0.04,122.63-0.01c26.83-0.03,43.54-16.68,43.55-43.46c0.04-96.3,0.04-192.6,0-288.89
		c-0.01-27.34-16.58-43.86-43.99-43.86c-239.39-0.02-478.78-0.02-718.17,0c-27.84,0-44.19,16.48-44.19,44.5
		c-0.02,95.74-0.02,191.48,0,287.22c0.01,28.01,16.37,44.48,44.19,44.51c40.6,0.03,81.2,0.02,121.79-0.01c2.71,0,5.41-0.24,8.4-0.39
		C270.48,715.48,270.48,689.27,270.48,662z M700.86,339.26c0-3.66,0-6.43,0-9.2c0-71.07,0-142.14,0-213.21
		c0-15.29-3.94-19.16-19.47-19.16c-121.46,0-242.91-0.01-364.37,0c-15.45,0-19.34,3.88-19.34,19.27c-0.01,71.07,0,142.14,0,213.21
		c0,2.96,0,5.92,0,9.08C432.47,339.26,566.15,339.26,700.86,339.26z M297.68,662.36c0,3.67,0,6.44,0,9.22c0,71.07,0,142.14,0,213.2
		c0,15.27,3.94,19.14,19.49,19.14c121.45,0,242.91,0.01,364.36,0c15.4,0,19.33-3.93,19.33-19.31c0.01-71.07,0-142.14,0-213.2
		c0-2.96,0-5.91,0-9.04C566.04,662.36,432.37,662.36,297.68,662.36z M217.48,205.58c0,45.06,0,89.15,0,133.46
		c17.88,0,35.31,0,52.72,0c0-44.82,0-89.1,0-133.46C252.38,205.58,235.14,205.58,217.48,205.58z M780.93,339.17
		c0-44.92,0-89.2,0-133.31c-18.02,0-35.45,0-52.76,0c0,44.75,0,88.84,0,133.31C745.82,339.17,763.06,339.17,780.93,339.17z"/>
	<path class="st1" d="M768.03,433.37c0.12,22.3-18.16,40.62-40.46,40.54c-21.93-0.08-40.01-18.11-40.12-40.04
		c-0.12-22.31,18.15-40.61,40.46-40.53C749.87,393.42,767.91,411.42,768.03,433.37z M728.39,420.25
		c-7.24-0.37-13.65,5.44-14.02,12.71c-0.37,7.23,5.45,13.65,12.71,14.03c7.21,0.37,13.66-5.47,14.03-12.72
		C741.48,427.05,735.65,420.62,728.39,420.25z"/>
	<path class="st1" d="M835.04,393.34c22.32-0.1,40.6,18.16,40.51,40.48c-0.09,21.94-18.13,39.99-40.07,40.09
		c-22.29,0.1-40.6-18.19-40.51-40.49C795.06,411.49,813.1,393.44,835.04,393.34z M834.96,420.25c-7.29,0.17-13.24,6.38-13.07,13.66
		c0.17,7.28,6.4,13.25,13.65,13.08c7.26-0.17,13.25-6.42,13.08-13.67C848.46,426.05,842.22,420.08,834.96,420.25z"/>
</g>
</svg>
