<?xml version="1.0" encoding="utf-8"?>
<!-- Generator: Adobe Illustrator 25.0.0, SVG Export Plug-In . SVG Version: 6.00 Build 0)  -->
<svg version="1.1" id="Layer_1" xmlns="http://www.w3.org/2000/svg" xmlns:xlink="http://www.w3.org/1999/xlink" x="0px" y="0px"
	 viewBox="0 0 1000 1000" style="enable-background:new 0 0 1000 1000;" xml:space="preserve">
<style type="text/css">
	.st0{fill:#FFFFFF;}
	.st1{fill:#01DF00;}
</style>
<g>
	<path class="st1" d="M426.51,820.16c28.63,0,57.25-0.01,85.88,0c15.55,0.01,22.07,4.37,22.08,14.71c0,10.22-6.88,14.94-22.13,14.95
		c-42.34,0.03-84.67,0.08-127.01-0.05c-13.2-0.04-18.31-5.08-17.57-15.8c0.34-5,3.49-7.75,6.79-10.49
		c13.06-10.86,26.05-21.82,39.39-32.33c7.87-6.2,11.95-13.36,11.49-23.75c-0.66-14.8-0.59-29.68,0.01-44.48
		c0.31-7.71-2-9.9-9.76-9.87c-70.46,0.29-140.91,0.17-211.37,0.17c-17.92,0-35.85,0.09-53.77-0.05
		c-36.4-0.27-61.12-24.86-61.14-61.15c-0.08-147.4,0.3-294.81-0.28-442.21c-0.13-33.62,27.83-61.52,61.45-61.42
		c206.11,0.6,412.23,0.29,618.35,0.28c22.25,0,44.51-0.37,66.75,0.16c29.76,0.71,55.01,27.06,55.09,56.7
		c0.03,9.96-4.7,15.88-13.45,16.82c-7.96,0.86-14.45-4.99-16.09-14.5c-3.67-21.26-12.9-29.09-34.37-29.09
		c-223.73,0-447.46,0.2-671.19-0.29c-24.96-0.05-36.47,14.93-36.41,36.23c0.38,119.9,0.28,239.8,0.02,359.7
		c-0.02,8.37,2.49,10.28,10.49,10.27c126.39-0.25,252.78-0.19,379.17-0.19c4.32,0,8.67-0.17,12.97,0.22
		c7,0.64,11.36,4.81,12.58,11.58c1.29,7.12-1.35,12.72-8.08,16.05c-3.73,1.84-7.71,1.9-11.76,1.9
		c-127.93,0.08-255.87,0.31-383.8,0.08c-9.44-0.02-12.61,2.31-11.58,11.71c0.83,7.64,0.19,15.43,0.19,23.16
		c0,21.93,11.82,33.89,33.57,33.89c119.9,0.01,239.8,0.02,359.7,0.03c2.47,0,4.95-0.13,7.41,0.04c8.82,0.59,14.54,6.47,14.54,14.81
		c0,8.32-5.69,14.54-14.59,14.7c-18.23,0.32-36.47,0.47-54.69-0.04c-7.35-0.2-9.53,2.02-9.29,9.3c0.51,15.43,0.2,30.9,0.12,46.35
		c-0.08,16.77-6.42,30.57-19.72,41.03c-3.61,2.84-7.09,5.84-10.63,8.77C426.09,818.77,426.3,819.47,426.51,820.16z"/>
	<path class="st1" d="M910.84,550.03c0,85.27,0.03,170.53-0.02,255.8c-0.01,26.77-18.51,45.6-45.33,45.65
		c-84.65,0.15-169.3,0.16-253.94,0.04c-28.63-0.04-47.07-18.52-47.08-47c-0.06-169.91-0.05-339.83,0-509.74
		c0.01-28.54,18.47-47.01,46.99-47.03c84.03-0.07,168.06-0.07,252.09,0c29.42,0.02,47.3,17.98,47.31,47.42
		c0.05,84.96,0.02,169.92,0.02,254.87C910.87,550.03,910.85,550.03,910.84,550.03z M594.12,530.17c0,54.38,0.13,108.76-0.15,163.15
		c-0.04,7.53,1.86,10.07,9.75,10.05c88.99-0.27,177.98-0.28,266.96-0.02c8.14,0.02,11.01-1.69,10.98-10.55
		c-0.42-109.07-0.47-218.14-0.38-327.22c0.01-6.61-1.23-8.99-8.5-8.97c-89.91,0.27-179.83,0.28-269.75-0.01
		c-7.68-0.02-9.1,2.53-9.07,9.49C594.21,420.78,594.1,475.47,594.12,530.17z M737.76,732.86c-44.77,0-89.55,0.14-134.32-0.14
		c-7.02-0.04-9.73,1.52-9.52,9.14c0.55,19.44,0.21,38.9,0.22,58.35c0.01,17.57,4.05,21.6,21.99,21.63
		c24.39,0.05,48.79,0.01,73.18,0.01c57.74,0,115.48,0.04,173.23-0.04c14.46-0.02,18.89-4.49,18.88-18.66
		c-0.01-20.38-0.47-40.76-0.08-61.14c0.14-7.26-1.94-9.37-9.27-9.32C827.31,733.03,782.53,732.86,737.76,732.86z M737.34,327.11
		c45.1,0,90.2-0.13,135.3,0.14c6.69,0.04,9.57-1.42,8.89-8.65c-0.68-7.36-0.25-14.81-0.35-22.23c-0.21-14.75-4.59-18.96-19.69-18.97
		c-15.75-0.01-31.51-0.01-47.26-0.01c-67.03-0.01-134.06-0.04-201.09,0c-13.94,0.01-18.93,5.1-19.03,19.06
		c-0.05,7.41,0.54,14.87-0.11,22.23c-0.65,7.34,2.34,8.62,8.97,8.58C647.76,326.99,692.55,327.12,737.34,327.11z"/>
	<path class="st1" d="M356.49,286.27c-1.49,6.02-3.54,14.37-5.63,22.71c-11.06,44.15-22.13,88.29-33.22,132.43
		c-2.64,10.49-10.32,15.75-19.48,13.48c-7.68-1.9-11.74-10.63-9.33-20.3c12.61-50.43,25.24-100.86,37.91-151.27
		c0.67-2.66,1.31-5.52,2.79-7.75c3.83-5.79,9.04-9.59,16.41-7.23C353.29,270.68,356.79,276.07,356.49,286.27z"/>
	<path class="st1" d="M243.02,307.12c6.22,0.8,10.89,3.83,13.49,9.75c2.74,6.24,0.62,11.59-3.59,16.08
		c-7.38,7.88-14.9,15.65-22.75,23.05c-4.29,4.04-4.75,6.89-0.17,11.13c7.46,6.91,14.5,14.29,21.47,21.71
		c7.83,8.33,8.27,16.28,1.66,22.87c-6.48,6.46-14.87,5.85-22.74-1.92c-11.86-11.7-23.64-23.48-35.33-35.34
		c-9.21-9.34-9.29-16.26-0.27-25.41c11.69-11.87,23.6-23.51,35.26-35.41C233.69,309.91,237.84,307.71,243.02,307.12z"/>
	<path class="st1" d="M456.54,361.54c0.17,5.46-2.86,9.37-6.37,12.92c-11.52,11.64-23.05,23.27-34.75,34.73
		c-8.51,8.33-16.8,9.07-23.58,2.55c-6.52-6.27-5.58-15.2,2.47-23.53c7.3-7.55,14.41-15.29,21.95-22.6c3.36-3.26,2.76-5.23-0.27-8.16
		c-7.56-7.29-14.96-14.76-22.16-22.4c-7.71-8.18-8.11-16.43-1.53-22.89c6.7-6.58,14.71-5.97,22.73,1.96
		c11.87,11.73,23.61,23.58,35.44,35.34C453.85,352.85,456.31,356.62,456.54,361.54z"/>
	<path class="st1" d="M717.94,612.88c-10.93,0.13-16.7-8.48-13.67-20.66c10.49-42.13,21.04-84.24,31.6-126.35
		c2.32-9.26,4.52-18.56,7.27-27.7c2.75-9.13,9.75-13.73,17.05-11.95c8.92,2.17,13.57,8.93,11.37,19.2
		c-3.87,18.05-8.64,35.92-13.11,53.84c-7.96,31.97-15.97,63.92-23.98,95.88C731.07,608.67,727.23,612.78,717.94,612.88z"/>
	<path class="st1" d="M817.52,573.98c-6.44,0.33-10.9-3.13-13.29-8.41c-2.73-6.06-1.62-12.16,3.21-17.12
		c7.76-7.97,15.43-16.04,23.5-23.69c3.82-3.62,3.9-6.02,0.05-9.65c-7.42-6.99-14.47-14.37-21.54-21.71
		c-7.58-7.87-8.3-16.53-2.12-22.89c6.27-6.44,15.17-5.99,22.86,1.56c12.13,11.9,24.19,23.88,36.04,36.06
		c7.88,8.1,7.94,15.5,0.13,23.52c-12.28,12.63-24.84,24.97-37.31,37.41C825.86,572.24,822.14,574.27,817.52,573.98z"/>
	<path class="st1" d="M673.7,559.39c0.47,5.82-2.45,10.06-7.29,12.82c-5.25,3-11.34,3.15-15.63-0.92
		c-14.73-14.04-29.26-28.32-43.16-43.17c-4.91-5.25-3.98-12.55,1.03-17.79c12.58-13.15,25.45-26.05,38.55-38.69
		c5.62-5.42,13.74-4.76,19.17,0.55c5.87,5.74,6.46,13.68,0.82,19.91c-7.24,8-14.8,15.74-22.49,23.31c-3.46,3.41-3.39,5.72,0.15,9.03
		c7.89,7.37,15.42,15.13,23.11,22.71C671.37,550.49,673.95,554.2,673.7,559.39z"/>
	<path class="st1" d="M738.4,762.52c12.66,0,25.32-0.13,37.97,0.04c9.43,0.13,15.65,6.03,15.76,14.48
		c0.1,7.65-6.12,14.8-14.72,14.93c-26.23,0.4-52.48,0.42-78.72-0.01c-9.28-0.15-15.83-7.48-15.44-15.24
		c0.43-8.5,6.46-13.99,16.25-14.14C712.46,762.36,725.43,762.52,738.4,762.52z"/>
</g>
</svg>
